<?xml version="1.0" standalone="no"?>
<!DOCTYPE svg PUBLIC "-//W3C//DTD SVG 20010904//EN"
 "http://www.w3.org/TR/2001/REC-SVG-20010904/DTD/svg10.dtd">
<svg version="1.0" xmlns="http://www.w3.org/2000/svg"
 width="16.000000pt" height="16.000000pt" viewBox="0 0 16.000000 16.000000"
 preserveAspectRatio="xMidYMid meet">
<metadata>
Created by potrace 1.11, written by Peter Selinger 2001-2013
</metadata>
<g transform="translate(0.000000,16.000000) scale(0.004000,-0.004000)"
fill="#000000" stroke="none">
<path d="M480 3980 c-6 -11 -8 -20 -6 -20 3 0 10 9 16 20 6 11 8 20 6 20 -3 0
-10 -9 -16 -20z"/>
<path d="M498 3969 c-10 -16 -13 -27 -7 -23 8 4 9 -1 4 -17 -5 -20 -4 -21 5
-9 10 13 11 12 6 -3 -3 -10 -6 -21 -6 -24 0 -3 -8 1 -17 8 -16 13 -17 12 -5
-3 8 -9 11 -23 7 -30 -4 -7 3 -2 14 12 15 18 19 20 15 6 -4 -11 -1 -22 7 -27
10 -6 10 -9 2 -9 -7 0 -13 -7 -13 -15 0 -8 6 -15 13 -15 8 0 7 -4 -3 -10 -13
-9 -13 -11 0 -21 13 -9 12 -10 -2 -5 -10 3 -18 0 -18 -6 0 -6 -6 -5 -17 3 -15
13 -15 12 -2 -8 10 -16 16 -19 22 -10 6 8 7 6 3 -6 -3 -10 -6 -21 -6 -23 0 -3
-4 -3 -9 1 -5 3 -13 0 -17 -6 -4 -8 -3 -9 4 -5 15 9 16 -6 1 -21 -8 -8 -8 -13
0 -17 8 -5 8 -13 1 -27 -6 -10 -8 -19 -6 -19 3 0 12 13 21 30 14 27 14 29 -1
23 -15 -5 -15 -3 1 20 20 30 27 35 18 11 -3 -9 0 -20 8 -25 10 -6 10 -9 2 -9
-14 0 -18 -26 -5 -33 4 -2 2 -3 -4 -1 -6 1 -16 -7 -23 -18 -9 -14 -9 -18 -1
-13 9 5 10 1 5 -16 -5 -20 -4 -21 5 -9 10 13 11 12 6 -3 -3 -10 -6 -21 -6 -24
0 -3 -8 1 -17 8 -16 13 -17 12 -5 -3 8 -9 11 -23 7 -30 -4 -7 3 -2 14 12 15
18 19 20 15 6 -4 -11 -1 -22 7 -27 10 -6 10 -9 2 -9 -7 0 -13 -7 -13 -15 0 -8
6 -15 13 -15 8 0 7 -4 -3 -10 -13 -9 -13 -11 0 -21 13 -9 12 -10 -2 -5 -10 3
-18 0 -18 -6 0 -6 -6 -5 -17 3 -15 13 -15 12 -2 -8 10 -16 16 -19 22 -10 6 8
7 6 3 -6 -3 -10 -6 -21 -6 -23 0 -3 -4 -3 -9 1 -5 3 -13 0 -17 -6 -4 -8 -3 -9
4 -5 7 4 12 3 12 -3 0 -5 -5 -13 -10 -16 -8 -5 -7 -11 1 -21 9 -11 9 -14 -1
-14 -8 0 -11 -2 -8 -5 3 -3 13 -2 23 1 16 6 16 8 2 19 -14 10 -13 13 4 35 18
24 18 24 12 3 -3 -16 -1 -23 8 -23 11 0 11 -2 -1 -10 -8 -5 -11 -10 -6 -10 5
0 1 -8 -8 -19 -14 -16 -15 -23 -4 -47 7 -16 17 -33 23 -37 6 -6 4 -7 -6 -4 -9
3 -21 -4 -28 -15 -11 -17 -10 -18 8 -9 15 8 22 8 27 -1 4 -7 4 -10 -1 -6 -10
9 -35 -10 -35 -26 0 -6 5 -4 11 4 9 12 10 12 5 -3 -3 -10 -6 -21 -6 -24 0 -3
-8 1 -17 8 -16 13 -17 12 -5 -3 8 -9 11 -23 7 -30 -4 -7 2 -2 14 12 20 24 20
24 14 3 -3 -16 -1 -23 8 -23 11 0 11 -2 0 -9 -13 -8 -13 -12 0 -28 13 -17 13
-17 -5 -3 -18 14 -19 13 -13 -4 5 -12 1 -26 -10 -39 -18 -19 -17 -20 4 -8 31
16 36 14 16 -7 -10 -10 -25 -16 -33 -13 -13 4 -13 3 0 -11 13 -15 17 -15 26
-2 6 8 14 14 18 14 4 0 -1 -11 -11 -24 -10 -13 -22 -23 -28 -21 -5 1 -7 0 -2
-2 11 -7 8 -31 -5 -36 -10 -4 -10 -6 0 -6 6 -1 12 -8 12 -16 0 -8 -6 -15 -12
-15 -9 0 -9 -3 1 -9 8 -5 11 -16 7 -27 -4 -14 -1 -12 12 5 15 18 21 21 27 11
5 -9 4 -11 -3 -6 -16 10 -15 -6 1 -24 9 -11 8 -11 -7 0 -18 14 -18 13 -12 -10
6 -20 5 -22 -4 -10 -9 12 -10 10 -5 -9 5 -17 4 -22 -5 -16 -9 6 -11 4 -5 -5 4
-7 2 -16 -6 -21 -10 -6 -10 -9 -2 -9 7 0 17 9 23 20 6 11 16 20 23 20 7 0 6
-4 -3 -10 -13 -8 -13 -13 -2 -31 8 -11 9 -18 3 -14 -6 3 -11 2 -11 -4 0 -5 3
-11 8 -14 4 -2 1 -2 -5 -1 -7 2 -13 -1 -13 -7 0 -6 -4 -8 -9 -4 -5 3 -13 0
-17 -6 -4 -8 -3 -9 4 -5 7 4 12 1 12 -6 0 -10 3 -9 11 2 9 12 10 12 5 -3 -3
-10 -6 -21 -6 -23 0 -3 -4 -2 -10 1 -6 3 -7 -1 -4 -9 4 -10 1 -16 -7 -16 -7 0
-9 -3 -5 -7 4 -4 16 3 26 17 19 24 19 24 13 3 -3 -16 -1 -23 8 -23 11 0 11 -2
0 -9 -13 -8 -13 -12 0 -28 13 -17 13 -17 -5 -3 -18 14 -19 13 -13 -4 5 -12 1
-26 -10 -39 -18 -19 -17 -20 4 -8 31 16 36 14 16 -7 -10 -10 -25 -16 -33 -13
-13 4 -13 3 0 -11 13 -15 17 -15 26 -2 6 8 14 14 18 14 4 0 -1 -11 -11 -24
-10 -13 -22 -23 -28 -21 -5 1 -7 0 -2 -2 11 -7 8 -31 -5 -36 -10 -4 -10 -6 0
-6 16 -1 16 -28 0 -34 -10 -4 -10 -6 0 -6 15 -1 16 -31 0 -31 -6 0 -9 -3 -5
-6 6 -7 39 10 38 19 -1 4 1 7 4 7 3 0 8 0 12 0 3 0 -3 -11 -16 -24 -20 -21
-21 -26 -9 -52 7 -16 17 -33 23 -37 6 -6 4 -7 -6 -4 -9 3 -21 -4 -28 -15 -11
-17 -10 -18 8 -9 15 8 22 8 27 -1 4 -7 4 -10 -1 -6 -10 9 -35 -10 -35 -26 0
-6 5 -4 11 4 9 12 10 12 5 -3 -3 -10 -6 -21 -6 -24 0 -3 -8 1 -17 8 -16 13
-17 12 -5 -3 8 -9 11 -23 7 -30 -4 -7 2 -2 14 12 20 24 20 24 14 3 -3 -16 -1
-23 8 -23 11 0 11 -2 0 -9 -13 -8 -13 -12 0 -28 13 -17 13 -17 -5 -3 -18 14
-19 13 -13 -4 5 -12 1 -26 -9 -37 -10 -11 -14 -19 -10 -19 4 0 2 -10 -4 -22
-11 -22 -10 -22 4 -4 9 10 13 22 11 26 -6 9 25 23 33 15 3 -3 0 -5 -6 -5 -13
0 -16 -26 -4 -33 4 -2 2 -3 -4 -1 -6 1 -16 -7 -23 -18 -9 -14 -9 -18 -1 -13 9
5 10 1 5 -16 -5 -20 -4 -21 5 -9 10 13 11 12 6 -3 -3 -10 -6 -21 -6 -24 0 -3
-8 1 -17 8 -16 13 -17 12 -5 -3 8 -9 11 -23 7 -30 -4 -7 3 -2 14 12 15 18 19
20 15 6 -4 -11 -1 -22 7 -27 10 -6 10 -9 2 -9 -7 0 -13 -7 -13 -15 0 -8 6 -15
13 -15 8 0 7 -4 -3 -10 -13 -9 -13 -11 0 -21 13 -9 12 -10 -2 -5 -10 3 -18 0
-18 -6 0 -6 -6 -5 -17 3 -15 13 -15 12 -2 -8 10 -16 16 -19 22 -10 6 8 7 6 3
-6 -3 -10 -6 -21 -6 -23 0 -3 -4 -3 -9 1 -5 3 -13 0 -17 -6 -4 -8 -3 -9 4 -5
15 9 16 -6 1 -21 -8 -8 -8 -13 0 -17 8 -5 8 -13 1 -27 -6 -10 -8 -19 -6 -19 3
0 12 13 21 30 14 27 14 29 -1 23 -15 -5 -15 -3 1 20 20 30 27 35 18 11 -3 -9
0 -20 8 -25 10 -6 10 -9 2 -9 -14 0 -18 -26 -5 -33 4 -2 2 -3 -4 -1 -6 1 -16
-7 -23 -18 -9 -14 -9 -18 -1 -13 9 5 10 1 5 -16 -5 -20 -4 -21 5 -9 10 13 11
12 6 -3 -3 -10 -6 -21 -6 -24 0 -3 -8 1 -17 8 -16 13 -17 12 -5 -3 8 -9 11
-23 7 -30 -4 -7 3 -2 14 12 15 18 19 20 15 6 -4 -11 -1 -22 7 -27 10 -6 10 -9
2 -9 -7 0 -13 -7 -13 -15 0 -8 6 -15 13 -15 8 0 7 -4 -3 -10 -13 -9 -13 -11 0
-21 13 -9 12 -10 -2 -5 -10 3 -18 0 -18 -6 0 -6 -6 -5 -17 3 -15 13 -15 12 -2
-8 10 -16 16 -19 22 -10 6 8 7 6 3 -6 -3 -10 -6 -21 -6 -23 0 -3 -4 -3 -9 1
-5 3 -13 0 -17 -6 -4 -8 -3 -9 4 -5 7 4 12 3 12 -3 0 -5 -5 -13 -10 -16 -8 -5
-7 -11 1 -21 9 -11 9 -14 -1 -14 -8 0 -11 -2 -8 -5 3 -3 13 -2 23 1 16 6 16 8
2 19 -14 10 -13 13 4 35 18 24 18 24 12 3 -3 -16 -1 -23 8 -23 11 0 11 -2 -1
-10 -8 -5 -11 -10 -6 -10 5 0 1 -8 -8 -19 -14 -16 -15 -23 -4 -47 7 -16 17
-33 23 -37 6 -6 4 -7 -6 -4 -9 3 -21 -4 -28 -15 -11 -17 -10 -18 8 -9 15 8 22
8 27 -1 4 -7 4 -10 -1 -6 -10 9 -35 -10 -35 -26 0 -6 5 -4 11 4 9 12 10 12 5
-3 -3 -10 -6 -21 -6 -24 0 -3 -8 1 -18 8 -15 13 -16 12 -4 -3 8 -9 11 -23 7
-30 -4 -7 2 -2 14 12 20 24 20 24 14 2 -3 -15 -1 -22 8 -22 11 0 11 -2 0 -9
-13 -8 -13 -12 0 -28 13 -17 13 -17 -5 -3 -18 14 -19 13 -13 -4 5 -12 1 -26
-10 -39 -18 -19 -17 -20 4 -8 31 16 36 14 16 -7 -10 -10 -25 -16 -33 -13 -13
4 -13 3 0 -11 13 -15 17 -15 26 -2 6 8 14 14 18 14 4 0 -1 -11 -11 -24 -10
-13 -22 -23 -28 -21 -5 1 -7 0 -2 -2 11 -7 8 -31 -6 -36 -9 -4 -9 -6 1 -6 6
-1 12 -8 12 -16 0 -8 -6 -15 -12 -15 -9 0 -9 -3 1 -9 8 -5 11 -16 7 -27 -4
-14 -1 -12 12 5 15 18 21 21 27 11 5 -9 4 -11 -3 -6 -16 10 -15 -6 1 -24 9
-11 8 -11 -7 0 -18 14 -18 13 -12 -10 6 -20 5 -22 -4 -10 -9 12 -10 10 -5 -9
5 -17 4 -22 -5 -16 -9 6 -11 4 -5 -5 4 -7 2 -16 -6 -21 -10 -6 -10 -9 -2 -9 7
0 17 9 23 20 6 11 16 20 23 20 7 0 6 -4 -3 -10 -13 -8 -13 -13 -2 -31 8 -11 9
-18 3 -14 -6 3 -11 2 -11 -4 0 -5 3 -11 8 -14 4 -2 1 -2 -5 -1 -7 2 -13 -1
-13 -7 0 -6 -4 -8 -9 -4 -5 3 -13 0 -17 -6 -4 -8 -3 -9 4 -5 7 4 12 1 12 -6 0
-10 3 -9 11 2 9 12 10 12 5 -3 -3 -10 -6 -21 -6 -23 0 -3 -4 -2 -10 1 -6 3 -7
-1 -4 -9 4 -10 1 -16 -7 -16 -7 0 -9 -3 -5 -7 4 -4 16 3 26 17 19 24 19 24 13
2 -3 -15 -1 -22 8 -22 11 0 11 -2 0 -9 -13 -8 -13 -12 0 -28 13 -17 13 -17 -5
-3 -18 14 -19 13 -13 -4 5 -12 1 -26 -10 -39 -18 -19 -17 -20 4 -8 31 16 36
14 16 -7 -10 -10 -25 -16 -33 -13 -13 4 -13 3 0 -11 13 -15 17 -15 26 -2 6 8
14 14 18 14 4 0 -1 -11 -11 -24 -10 -13 -22 -23 -28 -21 -5 1 -7 0 -2 -2 11
-7 8 -31 -6 -36 -9 -4 -9 -6 1 -6 16 -1 16 -28 -1 -34 -9 -4 -9 -6 1 -6 15 -1
16 -31 0 -31 -6 0 -9 -3 -5 -6 6 -7 39 10 38 19 -1 4 1 7 4 7 3 0 8 0 12 0 3
0 -3 -11 -16 -24 -20 -21 -21 -26 -9 -52 7 -16 17 -33 23 -37 6 -6 4 -7 -6 -4
-9 3 -21 -4 -28 -15 -11 -17 -10 -18 8 -9 15 8 22 8 27 -1 4 -7 4 -10 -1 -6
-10 9 -35 -10 -35 -26 0 -6 5 -4 11 4 9 12 10 12 5 -3 -3 -10 -6 -21 -6 -24 0
-3 -8 1 -18 8 -15 13 -16 12 -4 -3 8 -9 11 -23 7 -30 -4 -7 2 -2 14 12 20 24
20 24 14 3 -3 -16 -1 -23 8 -23 11 0 11 -2 0 -9 -13 -8 -13 -12 0 -28 13 -17
13 -17 -5 -3 -18 14 -19 13 -13 -4 5 -12 1 -26 -9 -37 -10 -11 -14 -19 -10
-19 4 0 2 -10 -4 -22 -11 -22 -10 -22 4 -4 9 10 13 22 11 26 -6 9 25 23 33 15
3 -3 0 -5 -6 -5 -13 0 -16 -26 -4 -33 4 -2 2 -3 -4 -1 -6 1 -16 -7 -23 -18 -9
-14 -9 -18 -1 -13 9 5 10 1 5 -16 -5 -20 -4 -21 5 -9 10 13 11 12 6 -3 -3 -10
-6 -21 -6 -24 0 -3 -8 1 -17 8 -16 13 -17 12 -5 -3 8 -9 11 -23 7 -30 -4 -7 3
-2 14 12 15 18 19 20 15 6 -4 -11 -1 -22 7 -28 12 -8 11 -9 -1 -5 -8 2 -24 1
-35 -4 -11 -4 665 -8 1502 -8 1439 -1 1522 0 1516 17 -6 15 -5 16 13 2 17 -14
18 -14 6 2 -8 9 -11 23 -7 30 4 7 -2 2 -14 -12 -20 -24 -20 -24 -14 -2 3 15 1
22 -8 22 -11 0 -11 2 0 9 13 8 13 12 0 28 -13 17 -13 17 5 3 18 -14 19 -13 13
4 -5 12 -1 26 9 37 10 11 14 19 10 19 -4 0 -2 10 4 22 11 22 10 22 -4 4 -9
-10 -13 -22 -11 -26 6 -9 -25 -23 -33 -15 -3 3 0 5 6 5 13 0 16 26 5 33 -5 2
-3 3 3 1 6 -1 16 7 23 18 9 14 9 18 1 13 -9 -5 -10 -1 -5 16 5 20 4 21 -5 9
-10 -13 -11 -12 -6 3 3 10 6 21 6 24 0 3 8 -1 18 -8 15 -13 16 -12 4 3 -8 9
-11 23 -7 30 4 7 -2 2 -14 -12 -20 -24 -20 -24 -14 -2 3 15 1 22 -8 22 -11 0
-11 2 0 9 13 8 13 12 0 28 -13 17 -13 17 5 3 18 -14 19 -13 13 4 -5 12 -1 26
10 39 18 19 17 20 -4 8 -33 -17 -38 -13 -12 9 13 10 19 19 13 20 -5 0 -16 -6
-23 -13 -11 -10 -11 -8 0 10 12 20 11 24 -6 38 -19 16 -19 16 3 5 14 -7 22 -7
22 -1 0 6 8 7 17 4 15 -6 16 -5 3 9 -11 11 -17 13 -23 4 -5 -6 -5 0 -2 13 5
15 3 21 -3 17 -6 -4 -8 2 -5 14 3 13 0 20 -8 20 -11 0 -11 2 1 10 8 5 11 10 6
10 -5 0 -3 6 3 14 10 11 8 17 -6 26 -16 10 -16 11 0 6 21 -7 21 -2 0 32 l-17
27 23 -22 c23 -24 37 -31 26 -13 -3 6 -3 16 2 23 11 17 13 38 3 32 -5 -3 -11
-1 -15 5 -3 5 0 10 7 10 10 0 10 2 -1 9 -8 5 -23 8 -33 6 -10 -2 -16 0 -13 6
4 5 13 9 21 9 8 0 14 5 14 10 0 7 -7 7 -20 0 -16 -8 -22 -8 -26 3 -3 9 -15 12
-34 9 -17 -2 -27 -9 -23 -15 3 -6 1 -7 -5 -3 -7 4 -12 2 -12 -5 0 -7 -6 -5
-13 6 -9 12 -16 14 -21 7 -8 -13 -36 -5 -36 10 0 5 4 7 8 4 4 -2 9 5 9 17 2
17 -3 14 -21 -15 -22 -36 -22 -37 -36 -15 -12 20 -12 21 3 8 10 -7 17 -9 17
-3 0 18 -29 22 -39 4 -6 -11 -24 -17 -55 -18 -25 -1 -46 2 -46 6 0 4 20 6 45
5 25 -1 43 0 40 3 -2 3 0 11 6 18 7 8 6 14 -2 20 -7 4 -9 3 -5 -4 13 -21 -41
-37 -56 -17 -5 6 -8 5 -8 -4 0 -11 -3 -11 -15 -1 -8 7 -15 9 -15 4 0 -5 -4 -3
-9 4 -7 11 -9 11 -14 -1 -4 -12 0 -15 15 -12 11 3 17 1 14 -3 -4 -4 -13 -7
-19 -7 -7 -1 -11 -7 -9 -15 3 -12 1 -12 -9 -3 -6 6 -18 9 -25 6 -8 -3 -14 0
-14 5 0 6 8 9 18 7 12 -2 18 3 18 17 0 18 -1 18 -13 2 -10 -14 -13 -14 -13 -3
-1 8 -6 4 -14 -10 -11 -20 -14 -21 -19 -7 -4 10 -3 15 3 11 6 -3 7 1 4 9 -9
23 -22 19 -20 -5 1 -15 -6 -23 -21 -25 -13 -2 -23 0 -23 5 0 6 9 8 19 6 15 -3
18 0 14 13 -5 11 -8 12 -11 4 -3 -10 -7 -10 -18 -1 -8 6 -14 8 -14 3 0 -5 -4
-3 -9 4 -7 11 -9 11 -14 -1 -4 -12 0 -15 15 -12 11 3 17 1 14 -3 -4 -4 -13 -7
-19 -7 -7 -1 -11 -7 -9 -15 3 -12 1 -12 -9 -3 -6 6 -18 9 -25 6 -8 -3 -14 0
-14 5 0 6 8 9 18 7 12 -2 18 3 18 17 0 18 -1 18 -13 2 -10 -14 -13 -14 -13 -3
-1 8 -6 4 -14 -10 -11 -20 -14 -21 -19 -7 -4 10 -3 15 3 11 6 -3 7 1 4 9 -9
23 -22 19 -20 -5 1 -15 -6 -23 -21 -25 -13 -2 -23 0 -23 5 0 6 9 8 19 6 15 -3
18 0 14 13 -5 11 -8 12 -11 4 -3 -10 -7 -10 -18 -1 -8 6 -14 8 -14 3 0 -5 -4
-3 -9 4 -7 11 -9 11 -14 -1 -4 -12 0 -15 15 -12 11 3 17 1 14 -3 -4 -4 -13 -7
-19 -7 -7 -1 -11 -7 -9 -15 3 -12 1 -12 -9 -3 -6 6 -18 9 -25 6 -8 -3 -14 0
-14 5 0 6 8 9 18 7 12 -2 18 3 18 17 0 18 -1 18 -13 2 -10 -14 -13 -14 -13 -3
-1 8 -6 4 -14 -10 -11 -20 -14 -21 -19 -7 -4 10 -3 15 3 11 6 -3 7 1 4 9 -9
23 -22 19 -20 -5 1 -15 -6 -23 -21 -25 -13 -2 -23 0 -23 5 0 6 9 8 19 6 15 -3
18 0 14 13 -5 11 -8 12 -11 4 -3 -10 -7 -10 -18 -1 -8 6 -14 8 -14 3 0 -5 -4
-3 -9 4 -7 11 -9 11 -14 -1 -4 -12 0 -15 15 -12 11 3 17 1 14 -3 -4 -4 -13 -7
-19 -7 -7 -1 -11 -7 -9 -15 3 -12 1 -12 -9 -3 -6 6 -18 9 -25 6 -8 -3 -14 0
-14 5 0 6 8 9 18 7 12 -2 18 3 18 17 0 18 -1 18 -13 2 -10 -14 -13 -14 -13 -3
-1 8 -6 4 -14 -10 -11 -20 -14 -21 -19 -7 -4 10 -3 15 3 11 6 -3 7 1 4 9 -9
23 -22 19 -20 -5 1 -15 -6 -23 -21 -25 -13 -2 -23 0 -23 5 0 6 9 8 19 6 15 -3
18 0 14 13 -5 11 -8 12 -11 4 -3 -10 -7 -10 -18 -1 -8 6 -14 8 -14 3 0 -5 -4
-3 -9 4 -7 11 -9 11 -14 -1 -4 -12 0 -15 15 -12 11 3 17 1 14 -3 -4 -4 -13 -7
-19 -7 -7 -1 -11 -7 -9 -15 3 -12 1 -12 -9 -3 -6 6 -18 9 -25 6 -8 -3 -14 0
-14 5 0 6 8 9 18 7 12 -2 18 3 18 17 0 18 -1 18 -13 2 -10 -14 -13 -14 -13 -3
-1 8 -6 4 -14 -10 -11 -20 -14 -21 -19 -7 -4 10 -3 15 3 11 6 -3 7 1 4 9 -9
23 -22 19 -20 -5 1 -15 -6 -23 -21 -25 -13 -2 -23 0 -23 5 0 6 9 8 19 6 15 -3
18 0 14 13 -5 11 -8 12 -11 4 -3 -10 -7 -10 -18 -1 -8 6 -14 8 -14 3 0 -5 -4
-3 -9 4 -7 11 -9 11 -14 -1 -4 -12 0 -15 15 -12 11 3 17 1 14 -3 -4 -4 -13 -7
-19 -7 -7 -1 -11 -7 -9 -15 3 -12 1 -12 -9 -3 -6 6 -18 9 -25 6 -8 -3 -14 0
-14 5 0 6 8 9 18 7 12 -2 18 3 18 17 0 18 -1 18 -13 2 -10 -14 -13 -14 -13 -3
-1 8 -6 4 -14 -10 -11 -20 -14 -21 -19 -7 -4 10 -3 15 3 11 6 -3 7 1 4 9 -9
23 -22 19 -20 -5 1 -15 -6 -23 -21 -25 -13 -2 -23 0 -23 5 0 6 9 8 19 6 15 -3
18 0 14 13 -5 11 -8 12 -11 4 -3 -10 -7 -10 -18 -1 -8 6 -14 8 -14 3 0 -5 -4
-3 -9 4 -7 11 -9 11 -14 -1 -4 -12 0 -15 15 -12 11 3 17 1 14 -3 -4 -4 -13 -7
-19 -7 -7 -1 -11 -7 -9 -15 3 -12 1 -12 -9 -3 -6 6 -18 9 -25 6 -8 -3 -14 0
-14 5 0 6 8 9 18 7 12 -2 18 3 18 17 0 18 -1 18 -13 2 -10 -14 -13 -14 -13 -3
-1 8 -6 4 -14 -10 -11 -20 -14 -21 -19 -7 -4 10 -3 15 3 11 6 -3 7 1 4 9 -9
23 -22 19 -20 -5 1 -15 -6 -23 -21 -25 -13 -2 -23 0 -23 5 0 6 9 8 19 6 15 -3
18 0 14 13 -5 11 -8 12 -11 4 -3 -10 -7 -10 -18 -1 -8 6 -14 8 -14 3 0 -5 -4
-3 -9 4 -7 11 -9 11 -14 -1 -4 -12 0 -15 15 -12 11 3 17 1 14 -3 -4 -4 -13 -7
-19 -7 -7 -1 -11 -7 -9 -15 3 -12 1 -12 -9 -3 -6 6 -18 9 -25 6 -8 -3 -14 0
-14 5 0 6 8 9 18 7 12 -2 18 3 18 17 0 18 -1 18 -13 2 -10 -14 -13 -14 -13 -3
0 12 -2 12 -9 0 -7 -11 -10 -10 -18 4 -9 16 -10 16 -17 0 -3 -9 -4 -20 -2 -24
6 -9 -51 -7 -60 2 -13 12 -66 8 -58 -5 4 -7 3 -8 -4 -4 -7 4 -12 1 -12 -6 0
-8 -5 -6 -11 5 -6 9 -15 14 -21 11 -6 -4 -8 -2 -4 4 3 6 15 9 25 7 10 -2 24 1
32 7 11 8 10 9 -3 4 -11 -3 -18 0 -18 7 0 8 -4 6 -10 -3 -5 -8 -10 -11 -10 -6
0 6 -5 5 -12 -2 -8 -8 -17 -8 -30 -1 -15 8 -23 7 -35 -8 -8 -10 -12 -13 -9 -6
4 6 1 15 -5 19 -8 4 -9 3 -5 -4 11 -19 -5 -14 -20 6 -13 16 -14 16 -7 -3 6
-17 4 -18 -8 -8 -8 6 -24 10 -34 9 -11 -2 -27 2 -35 8 -13 10 -13 9 -1 -7 13
-16 2 -25 -13 -10 -10 11 -35 12 -41 2 -3 -5 -1 -19 5 -31 9 -20 9 -21 -2 -7
-7 9 -23 14 -36 13 -12 -2 -22 0 -22 5 0 6 9 8 20 6 11 -2 20 0 20 5 0 13 -34
22 -38 11 -2 -6 -9 -8 -15 -4 -6 4 -8 1 -5 -9 5 -11 -1 -14 -23 -13 -16 1 -32
5 -36 10 -5 4 -2 5 5 1 6 -4 12 -5 12 -2 0 9 -32 36 -43 36 -6 0 -2 -7 9 -15
18 -13 17 -14 -17 -15 -19 0 -41 -6 -48 -12 -10 -11 -11 -9 -5 6 6 16 4 18
-10 13 -10 -4 -15 -3 -11 3 3 6 2 10 -3 10 -13 0 -23 27 -16 45 4 8 11 12 18
8 6 -4 5 1 -3 10 -7 9 -10 17 -5 17 4 0 3 5 -4 12 -15 15 -16 31 0 22 7 -5 8
-3 4 5 -5 7 -14 10 -22 7 -8 -3 -14 -3 -14 0 0 2 10 8 23 13 18 7 23 16 22 38
-1 16 -5 34 -9 41 -4 7 -4 12 -1 12 4 0 -3 15 -14 33 -15 25 -17 34 -7 34 8 0
12 -6 10 -12 -3 -7 3 -18 12 -26 13 -10 16 -11 10 -1 -5 8 -1 22 11 35 10 12
11 16 3 10 -12 -9 -20 -8 -35 4 -20 15 -20 15 1 11 17 -4 20 -1 19 21 -1 15
-5 32 -9 39 -4 7 -4 12 -1 12 4 0 -3 15 -14 33 -15 25 -17 34 -7 34 8 0 12 -6
10 -12 -3 -7 3 -18 12 -26 13 -10 16 -11 10 -1 -5 8 -1 22 11 35 10 12 11 16
3 10 -12 -9 -20 -8 -35 4 -20 15 -20 15 1 11 17 -4 20 -1 19 21 -1 15 -5 32
-9 39 -4 7 -4 12 -1 12 4 0 -3 15 -14 33 -15 25 -17 34 -7 34 8 0 12 -6 10
-12 -3 -7 3 -18 12 -26 13 -10 16 -11 10 -1 -5 8 -1 22 11 35 10 12 11 16 3
10 -12 -9 -20 -8 -35 4 -20 15 -20 15 0 11 17 -4 20 0 21 29 0 18 -3 33 -7 33
-4 0 -6 -12 -4 -27 3 -25 2 -26 -11 -8 -16 22 -18 35 -4 35 6 0 10 9 10 20 0
19 -11 25 -35 20 -5 -1 -2 7 7 17 11 12 14 23 8 34 -6 11 -5 16 4 16 7 0 12
-10 11 -21 -3 -27 12 -56 28 -55 9 0 9 2 -1 6 -6 2 -10 9 -6 14 3 5 -1 9 -8 9
-9 0 -9 3 2 10 10 6 11 10 3 10 -7 0 -13 4 -13 9 0 5 10 7 23 5 21 -4 21 -4
-2 6 -18 8 -21 13 -12 24 6 7 8 16 5 19 -10 10 -13 57 -4 57 5 0 7 9 5 20 -2
11 3 24 12 28 11 7 12 11 4 16 -6 4 -11 2 -11 -4 0 -6 -4 -9 -8 -6 -4 2 -9 -6
-10 -20 -3 -45 -5 -51 -19 -51 -9 0 -10 4 -3 12 6 7 8 20 4 29 -3 9 -2 16 4
16 13 0 10 24 -6 43 -9 10 -10 17 -2 22 6 4 7 12 1 24 -7 13 -6 18 3 18 7 0
13 -7 12 -15 0 -8 5 -16 12 -18 7 -1 8 0 2 3 -19 9 -10 21 13 17 21 -4 21 -4
-2 6 -18 8 -21 13 -12 24 6 7 8 16 5 19 -10 10 -13 57 -4 57 5 0 7 9 5 20 -2
11 3 24 12 28 11 7 12 11 4 16 -6 4 -11 2 -11 -4 0 -6 -4 -9 -8 -6 -4 2 -9 -6
-10 -20 -3 -45 -5 -51 -19 -51 -9 0 -10 4 -3 12 6 7 8 20 4 29 -3 9 -2 16 4
16 13 0 10 24 -6 43 -9 10 -10 17 -2 22 6 4 7 12 1 24 -7 13 -6 18 3 18 7 0
13 -7 12 -15 -1 -8 5 -16 12 -18 7 -1 8 0 2 3 -19 9 -10 21 13 17 21 -4 21 -4
-2 6 -18 8 -21 13 -12 24 6 7 8 16 5 19 -10 10 -13 57 -4 57 5 0 7 9 5 20 -2
11 3 24 12 28 11 7 12 11 4 16 -6 4 -11 2 -11 -4 0 -6 -4 -9 -8 -6 -4 2 -9 -6
-10 -20 -3 -45 -5 -51 -19 -51 -9 0 -10 4 -3 12 6 7 8 20 4 29 -3 9 -2 16 4
16 13 0 10 24 -6 43 -9 10 -10 17 -2 22 6 4 7 12 1 24 -7 13 -6 18 3 18 7 0
13 -7 12 -15 -1 -8 5 -16 12 -18 7 -1 8 0 2 3 -19 9 -10 21 13 17 21 -4 21 -4
-2 6 -18 8 -21 13 -12 24 6 7 8 16 5 19 -10 10 -13 57 -4 57 5 0 7 9 5 20 -2
11 3 24 12 28 11 7 12 11 4 16 -6 4 -11 2 -11 -4 0 -6 -4 -9 -8 -6 -4 2 -9 -6
-10 -20 -3 -45 -5 -51 -19 -51 -9 0 -10 4 -3 12 6 7 8 20 4 29 -3 9 -2 16 4
16 13 0 10 24 -6 43 -9 10 -10 17 -2 22 6 4 7 12 1 24 -7 13 -6 18 3 18 7 0
13 -7 12 -15 0 -8 5 -16 12 -18 7 -1 8 0 2 3 -19 9 -10 21 13 17 21 -4 21 -4
-2 6 -18 8 -21 13 -12 24 6 7 8 16 5 19 -10 10 -13 57 -4 57 5 0 7 9 5 20 -2
11 3 24 12 28 11 7 12 11 4 16 -6 4 -11 2 -11 -4 0 -6 -4 -9 -8 -6 -4 2 -9 -6
-10 -20 -3 -45 -5 -51 -19 -51 -9 0 -10 4 -3 12 6 7 8 20 4 29 -3 9 -2 16 4
16 13 0 10 24 -6 43 -9 10 -10 17 -2 22 6 4 7 12 1 24 -7 13 -6 18 3 18 7 0
13 -7 12 -15 0 -8 5 -16 12 -18 7 -1 8 0 2 3 -19 9 -10 21 13 17 21 -4 21 -4
-2 6 -18 8 -21 13 -12 24 6 7 8 16 5 19 -10 10 -13 57 -4 57 5 0 7 9 5 20 -2
11 3 24 12 28 11 7 12 11 4 16 -6 4 -11 2 -11 -4 0 -6 -4 -9 -8 -6 -4 2 -9 -6
-10 -20 -3 -45 -5 -51 -19 -51 -9 0 -10 4 -3 12 6 7 8 20 4 29 -3 9 -2 16 4
16 13 0 10 24 -6 43 -9 10 -10 17 -2 22 6 4 7 12 1 24 -7 13 -6 18 3 18 7 0
13 -7 12 -15 -1 -8 5 -16 12 -18 7 -1 8 0 2 3 -17 8 -11 23 8 16 15 -5 14 -4
-2 9 -13 10 -15 17 -7 22 8 5 8 13 1 27 -11 19 -2 25 16 12 5 -5 1 -1 -8 9
-11 9 -14 18 -8 21 6 3 5 4 -2 3 -7 -2 -13 -9 -13 -16 0 -7 -7 -15 -15 -17
-12 -4 -12 -3 -1 5 11 8 10 12 -5 22 -16 10 -16 11 -1 6 11 -3 17 0 17 10 0 8
4 13 9 9 5 -3 13 0 17 6 4 8 3 9 -4 5 -8 -5 -12 2 -12 19 0 20 -4 26 -15 21
-20 -7 -19 -4 7 18 20 18 21 18 14 0 -5 -14 -4 -16 4 -8 6 6 8 18 4 27 -5 13
-10 15 -27 6 -18 -9 -18 -7 3 10 29 24 34 25 63 9 19 -9 20 -9 10 3 -9 11 -8
18 1 31 7 10 16 15 19 11 4 -3 0 -11 -8 -17 -13 -9 -11 -13 9 -22 19 -9 23 -9
19 2 -2 7 0 21 7 31 10 16 10 16 5 -3 -4 -14 -1 -21 10 -21 8 0 15 3 15 6 0 3
18 7 40 7 22 1 40 -3 40 -7 0 -4 -9 -6 -20 -4 -26 5 -36 -14 -16 -31 9 -8 11
-9 6 -2 -15 19 -12 32 5 18 8 -7 15 -9 15 -5 0 4 8 1 18 -6 15 -13 16 -12 3 4
-8 10 -9 17 -3 17 6 0 14 -5 17 -10 4 -6 11 -8 16 -4 6 3 17 -2 25 -12 14 -18
14 -18 4 4 -9 19 -8 22 10 22 12 0 19 4 15 9 -3 5 -1 13 5 16 6 4 9 1 8 -7 -3
-14 5 -14 35 -3 10 4 17 3 17 -5 0 -6 -4 -9 -8 -6 -4 2 -14 1 -22 -5 -11 -6
-11 -9 -2 -10 22 -3 27 -4 42 -14 13 -8 13 -7 1 8 -8 10 -9 17 -3 17 6 0 14
-5 17 -10 4 -6 11 -8 16 -4 5 3 7 10 3 15 -3 5 -9 7 -14 4 -5 -3 -12 0 -16 6
-4 8 -3 9 4 5 7 -4 12 -1 12 6 0 10 2 10 9 -1 10 -15 41 -24 41 -13 0 4 18 8
40 8 22 1 40 -3 40 -7 0 -4 -9 -6 -20 -4 -25 5 -37 -13 -19 -29 8 -6 11 -7 7
-2 -14 17 -8 29 7 16 8 -7 15 -9 15 -5 0 4 8 1 18 -6 15 -13 16 -12 3 4 -8 10
-9 17 -3 17 6 0 14 -5 17 -10 4 -6 11 -8 16 -4 6 3 17 -2 25 -12 14 -18 14
-18 4 4 -9 19 -8 22 10 22 12 0 19 4 15 9 -3 5 0 13 7 17 7 4 10 4 6 -1 -9 -9
9 -35 23 -35 5 0 9 5 9 11 0 5 -4 8 -8 5 -5 -3 -9 1 -9 9 0 9 4 11 11 6 6 -4
21 -7 34 -6 13 1 25 -2 28 -7 3 -4 19 -8 35 -8 20 0 28 4 23 12 -4 7 -3 8 4 4
7 -4 12 -2 12 5 0 7 6 5 13 -6 9 -12 16 -14 21 -7 8 13 36 5 36 -10 0 -5 -4
-7 -8 -4 -4 2 -9 -5 -9 -17 -2 -18 1 -16 19 11 16 26 23 30 34 21 8 -6 14 -14
14 -16 0 -3 -7 0 -15 7 -9 7 -15 8 -15 2 0 -18 29 -22 39 -4 6 11 24 17 55 18
25 1 46 -2 46 -6 0 -4 -20 -6 -45 -5 -25 1 -43 0 -40 -3 2 -3 0 -11 -6 -18 -7
-8 -6 -14 2 -20 7 -4 9 -3 5 4 -13 21 41 37 56 17 5 -6 8 -5 8 4 0 11 3 11 15
1 8 -7 15 -9 15 -4 0 5 4 3 9 -4 7 -11 9 -11 14 1 4 12 0 15 -15 12 -11 -3
-17 -1 -14 3 4 4 13 7 19 7 7 1 11 7 9 15 -3 12 -1 12 9 3 6 -6 18 -9 25 -6 8
3 14 0 14 -5 0 -6 -8 -9 -18 -7 -12 2 -18 -3 -18 -17 0 -18 1 -18 13 -2 10 14
13 14 13 3 0 -12 2 -12 9 0 7 11 10 10 18 -4 9 -16 10 -16 17 0 3 9 4 20 2 24
-6 9 51 7 60 -2 13 -12 66 -8 58 5 -4 7 -3 8 4 4 7 -4 12 -2 12 5 0 7 6 5 13
-6 9 -12 16 -14 21 -7 8 13 36 5 36 -10 0 -5 -4 -7 -8 -4 -4 2 -9 -5 -9 -17
-2 -17 3 -14 21 15 22 36 22 37 36 15 12 -20 12 -21 -3 -8 -10 7 -17 9 -17 3
0 -18 29 -22 39 -4 6 11 24 17 55 18 25 1 46 -2 46 -6 0 -4 -20 -6 -45 -5 -25
1 -43 0 -40 -3 2 -3 0 -11 -6 -18 -7 -8 -6 -14 2 -20 7 -4 9 -3 5 4 -13 21 41
37 56 17 5 -6 8 -5 8 4 0 11 3 11 15 1 8 -7 15 -9 15 -4 0 5 4 3 9 -4 7 -11 9
-11 14 1 4 12 0 15 -15 12 -11 -3 -17 -1 -14 3 4 4 13 7 19 7 7 1 11 7 9 15
-3 12 -1 12 9 3 6 -6 18 -9 25 -6 8 3 14 0 14 -5 0 -6 -8 -9 -18 -7 -12 2 -18
-3 -18 -17 0 -18 1 -18 13 -2 10 14 13 14 13 3 0 -12 2 -12 9 0 7 11 10 10 18
-4 9 -16 10 -16 17 0 3 9 4 20 2 24 -6 9 51 7 60 -2 13 -12 66 -8 58 5 -4 7
-3 8 4 4 7 -4 12 -2 12 5 0 7 6 5 13 -6 9 -12 16 -14 21 -7 8 13 36 5 36 -10
0 -5 -4 -7 -8 -4 -4 2 -9 -5 -9 -17 -2 -18 1 -16 19 11 16 26 23 30 34 21 8
-6 14 -14 14 -16 0 -3 -7 0 -15 7 -9 7 -15 8 -15 2 0 -18 29 -22 39 -4 9 16
81 28 81 13 0 -4 -16 -7 -36 -6 -19 2 -33 0 -30 -3 3 -3 1 -11 -5 -18 -7 -9
-6 -14 3 -20 7 -4 10 -4 6 1 -15 16 13 35 33 24 10 -5 19 -7 19 -3 0 3 8 0 18
-7 15 -13 16 -12 3 4 -8 10 -9 17 -3 17 6 0 14 -5 17 -10 4 -6 11 -8 16 -4 5
3 7 10 3 15 -3 5 -9 7 -14 4 -5 -3 -12 0 -16 6 -4 8 -3 9 4 5 7 -4 12 -1 12 6
0 10 2 10 9 -1 10 -15 41 -24 41 -13 0 4 18 8 40 8 39 1 51 -8 28 -22 -6 -4
-8 -3 -4 4 3 6 -1 9 -11 8 -24 -4 -27 -21 -6 -37 15 -11 16 -11 6 1 -18 20
-16 35 2 20 8 -7 15 -9 15 -5 0 4 8 1 18 -6 15 -13 16 -12 3 4 -13 16 -2 25
13 10 11 -12 37 -12 29 0 -4 6 0 8 10 4 9 -3 19 -2 22 4 4 5 10 7 14 4 5 -2 6
7 3 21 -2 14 -7 22 -11 19 -6 -6 -7 -11 -10 -37 -1 -9 -4 -9 -13 0 -9 9 -8 16
5 30 9 10 14 22 10 27 -5 4 -3 5 3 2 6 -4 16 5 23 19 7 17 17 24 27 20 9 -3
12 -2 9 5 -4 6 -13 8 -20 5 -7 -2 -16 2 -19 11 -4 10 -2 14 8 10 10 -4 13 -1
9 9 -3 7 0 14 7 14 6 0 8 5 5 11 -5 7 -11 5 -18 -5 -11 -13 -14 -13 -27 2 -13
14 -13 15 1 10 9 -4 20 2 28 14 11 18 10 18 -11 7 -22 -12 -23 -11 -5 8 11 13
15 27 11 38 -5 13 -4 16 4 11 8 -5 10 -2 6 8 -4 9 -1 16 6 16 10 0 10 3 0 15
-6 8 -8 20 -4 26 5 8 3 9 -6 4 -9 -6 -10 -1 -5 16 5 19 4 21 -5 9 -9 -12 -10
-10 -5 9 5 15 3 21 -3 17 -6 -4 -8 2 -5 14 3 11 0 20 -6 20 -6 0 -3 8 7 18 9
10 24 16 32 13 13 -4 13 -3 0 11 -13 15 -17 15 -26 2 -6 -8 -14 -14 -18 -14
-4 0 1 11 11 24 10 13 22 23 28 21 5 -1 7 0 3 2 -12 7 -9 31 5 36 9 4 9 6 0 6
-15 1 -18 31 -3 31 6 0 5 6 -2 14 -9 9 -17 11 -25 5 -7 -7 -14 -6 -19 2 -4 8
-3 9 5 5 6 -4 14 -1 17 8 3 9 12 12 22 8 14 -5 15 -4 2 10 -13 15 -17 15 -26
2 -6 -8 -14 -14 -18 -14 -4 0 1 11 11 24 10 13 22 23 28 21 5 -1 7 0 3 2 -12
7 -9 31 5 36 9 4 9 6 0 6 -15 1 -18 31 -3 31 7 0 6 5 -2 13 -15 16 -40 18 -31
3 4 -6 0 -5 -9 2 -12 10 -321 12 -1489 12 l-1474 0 -17 -31z m2997 -16 c-16
-23 -16 -25 -1 -20 15 6 15 4 1 -23 -9 -17 -18 -30 -21 -30 -2 0 0 9 6 19 7
14 7 22 0 26 -8 5 -7 11 1 21 9 11 8 14 -2 15 -11 0 13 15 30 18 2 1 -5 -11
-14 -26z m-2970 -3 c3 -5 1 -10 -4 -10 -6 0 -11 5 -11 10 0 6 2 10 4 10 3 0 8
-4 11 -10z m2970 -157 c-16 -23 -16 -25 -1 -20 15 6 15 4 1 -23 -9 -17 -18
-30 -21 -30 -2 0 0 9 6 19 7 14 7 22 0 26 -8 5 -7 11 1 21 9 11 8 14 -2 15
-11 0 13 15 30 18 2 1 -5 -11 -14 -26z m-2970 -163 c3 -5 1 -10 -4 -10 -6 0
-11 5 -11 10 0 6 2 10 4 10 3 0 8 -4 11 -10z m2975 -70 c7 -14 8 -26 1 -38
-10 -16 -10 -16 -11 1 0 9 -6 17 -12 17 -9 0 -8 4 2 10 13 9 13 11 0 20 -9 6
-11 10 -3 10 7 0 17 -9 23 -20z m-6 -81 c-3 -5 -11 -9 -17 -8 -8 0 -8 2 1 6
10 4 10 8 0 21 -12 15 -11 16 4 3 10 -7 15 -17 12 -22z m-2972 -156 c-6 -2 -9
-10 -6 -15 4 -7 2 -8 -5 -4 -13 9 -5 26 12 25 9 0 8 -2 -1 -6z m1488 -37 c0
-3 -4 -8 -10 -11 -5 -3 -10 -1 -10 4 0 6 5 11 10 11 6 0 10 -2 10 -4z m185 -6
c-3 -5 -12 -10 -18 -10 -7 0 -6 4 3 10 19 12 23 12 15 0z m295 6 c0 -3 -4 -8
-10 -11 -5 -3 -10 -1 -10 4 0 6 5 11 10 11 6 0 10 -2 10 -4z m185 -6 c-3 -5
-12 -10 -18 -10 -7 0 -6 4 3 10 19 12 23 12 15 0z m295 6 c0 -3 -4 -8 -10 -11
-5 -3 -10 -1 -10 4 0 6 5 11 10 11 6 0 10 -2 10 -4z m185 -6 c-3 -5 -12 -10
-18 -10 -7 0 -6 4 3 10 19 12 23 12 15 0z m278 -10 c7 -26 -7 -34 -24 -13 -10
12 -10 14 -1 9 7 -4 12 -1 12 8 0 22 7 20 13 -4z m-2143 0 c0 -5 -5 -10 -11
-10 -5 0 -7 5 -4 10 3 6 8 10 11 10 2 0 4 -4 4 -10z m231 -4 c5 3 9 1 9 -4 0
-18 -28 -21 -42 -4 -9 11 -10 14 0 8 7 -4 12 -2 13 6 0 10 2 10 6 0 2 -6 9
-10 14 -6z m320 0 c5 3 9 1 9 -4 0 -18 -28 -21 -42 -4 -9 11 -10 14 0 8 7 -4
12 -2 13 6 0 10 2 10 6 0 2 -6 9 -10 14 -6z m553 -12 c3 -8 2 -12 -4 -9 -6 3
-10 10 -10 16 0 14 7 11 14 -7z m480 0 c3 -8 2 -12 -4 -9 -6 3 -10 10 -10 16
0 14 7 11 14 -7z m-1646 -129 c-3 -3 -9 2 -12 12 -6 14 -5 15 5 6 7 -7 10 -15
7 -18z m23 -88 c-13 -13 -26 -3 -16 12 3 6 11 8 17 5 6 -4 6 -10 -1 -17z
m-731 -56 c-7 -14 -7 -22 0 -26 8 -5 8 -11 0 -20 -8 -10 -7 -14 2 -17 7 -3 2
-7 -10 -10 -23 -6 -23 -6 -6 19 15 24 15 26 0 20 -15 -6 -15 -4 -1 23 9 17 18
30 21 30 2 0 0 -9 -6 -19z m731 -184 c-13 -13 -26 -3 -16 12 3 6 11 8 17 5 6
-4 6 -10 -1 -17z m0 -240 c-13 -13 -26 -3 -16 12 3 6 11 8 17 5 6 -4 6 -10 -1
-17z m-731 -56 c-7 -14 -7 -22 0 -26 8 -5 8 -11 0 -20 -8 -10 -7 -14 2 -17 7
-3 2 -7 -10 -10 -23 -6 -23 -6 -6 19 15 24 15 26 0 20 -15 -6 -15 -4 -1 23 9
17 18 30 21 30 2 0 0 -9 -6 -19z m2 -138 c-6 -2 -9 -10 -6 -15 4 -7 2 -8 -5
-4 -13 9 -5 26 12 25 9 0 8 -2 -1 -6z m729 -46 c-13 -13 -26 -3 -16 12 3 6 11
8 17 5 6 -4 6 -10 -1 -17z m0 -240 c-13 -13 -26 -3 -16 12 3 6 11 8 17 5 6 -4
6 -10 -1 -17z m-726 -47 c3 -5 1 -10 -4 -10 -6 0 -11 5 -11 10 0 6 2 10 4 10
3 0 8 -4 11 -10z m726 -193 c-13 -13 -26 -3 -16 12 3 6 11 8 17 5 6 -4 6 -10
-1 -17z m-726 -127 c3 -5 1 -10 -4 -10 -6 0 -11 5 -11 10 0 6 2 10 4 10 3 0 8
-4 11 -10z m726 -113 c-13 -13 -26 -3 -16 12 3 6 11 8 17 5 6 -4 6 -10 -1 -17z
m-729 -194 c-6 -2 -9 -10 -6 -15 4 -7 2 -8 -5 -4 -13 9 -5 26 12 25 9 0 8 -2
-1 -6z m732 -102 c4 -5 -3 -7 -14 -4 -23 6 -26 13 -6 13 8 0 17 -4 20 -9z m-3
-28 c13 -16 12 -17 -3 -4 -17 13 -22 21 -14 21 2 0 10 -8 17 -17z m3 -132 c4
-5 -3 -7 -14 -4 -23 6 -26 13 -6 13 8 0 17 -4 20 -9z m-3 -28 c13 -16 12 -17
-3 -4 -10 7 -18 15 -18 17 0 8 8 3 21 -13z m-731 -52 c-7 -14 -7 -22 0 -26 8
-5 8 -11 0 -20 -8 -10 -7 -14 2 -17 7 -3 2 -7 -10 -10 -23 -6 -23 -6 -6 19 15
24 15 26 0 20 -15 -6 -15 -4 -1 23 9 17 18 30 21 30 2 0 0 -9 -6 -19z m734
-80 c4 -5 -3 -7 -14 -4 -23 6 -26 13 -6 13 8 0 17 -4 20 -9z m-3 -28 c13 -16
12 -17 -3 -4 -10 7 -18 15 -18 17 0 8 8 3 21 -13z m6 -29 c-3 -3 -12 -4 -19
-1 -8 3 -5 6 6 6 11 1 17 -2 13 -5z m-15 -69 c2 3 5 -2 5 -10 0 -24 -13 -18
-26 13 -10 23 -9 25 2 10 8 -10 16 -16 19 -13z m311 -115 c8 -8 8 -11 0 -6 -6
3 -13 2 -15 -4 -2 -6 -8 -2 -15 9 -10 16 -9 19 3 17 8 -1 20 -8 27 -16z m84 6
c30 -6 19 -12 -22 -12 -25 -1 -45 2 -45 6 0 13 12 18 33 14 12 -3 27 -6 34 -8z
m93 -5 c0 -4 -9 -7 -20 -8 -19 -2 -26 8 -14 20 7 7 34 -2 34 -12z m208 -6 c-3
-3 -9 2 -12 12 -6 14 -5 15 5 6 7 -7 10 -15 7 -18z m-568 -16 c0 -6 -4 -7 -10
-4 -5 3 -10 11 -10 16 0 6 5 7 10 4 6 -3 10 -11 10 -16z m480 1 c0 -5 -5 -10
-11 -10 -5 0 -7 5 -4 10 3 6 8 10 11 10 2 0 4 -4 4 -10z m1420 6 c0 -2 -7 -7
-16 -10 -8 -3 -12 -2 -9 4 6 10 25 14 25 6z m180 -6 c0 -5 -5 -10 -11 -10 -5
0 -7 5 -4 10 3 6 8 10 11 10 2 0 4 -4 4 -10z m44 -22 c-4 -6 1 -17 10 -24 9
-6 13 -15 8 -18 -6 -3 -17 5 -26 18 -12 18 -12 26 -3 29 18 8 19 8 11 -5z
m-2974 -117 c-7 -14 -7 -22 0 -26 8 -5 8 -11 0 -20 -8 -10 -7 -14 2 -17 7 -3
2 -7 -10 -10 -23 -6 -23 -6 -6 19 15 24 15 26 0 20 -15 -6 -15 -4 -1 23 9 17
18 30 21 30 2 0 0 -9 -6 -19z m2 -138 c-6 -2 -9 -10 -6 -15 4 -7 2 -8 -5 -4
-13 9 -5 26 12 25 9 0 8 -2 -1 -6z m2968 -233 c0 -5 -2 -10 -4 -10 -3 0 -8 5
-11 10 -3 6 -1 10 4 10 6 0 11 -4 11 -10z m-2965 -100 c3 -5 1 -10 -4 -10 -6
0 -11 5 -11 10 0 6 2 10 4 10 3 0 8 -4 11 -10z"/>
<path d="M485 3850 c-11 -5 -14 -9 -7 -9 7 -1 10 -5 7 -11 -3 -5 -4 -10 -1
-10 3 0 10 9 16 20 6 11 9 20 8 19 -2 0 -12 -4 -23 -9z"/>
<path d="M491 3811 c-8 -5 -9 -11 -3 -15 5 -3 12 1 16 9 6 17 6 18 -13 6z"/>
<path d="M3495 3670 c-3 -6 1 -7 9 -4 18 7 21 14 7 14 -6 0 -13 -4 -16 -10z"/>
<path d="M3507 3653 c-12 -12 -7 -22 16 -33 21 -11 22 -11 2 5 -17 14 -18 17
-5 25 8 5 10 10 4 10 -6 0 -14 -3 -17 -7z"/>
<path d="M485 3530 c-11 -5 -14 -9 -7 -9 7 -1 10 -5 7 -11 -3 -5 -4 -10 -1
-10 3 0 10 9 16 20 6 11 9 20 8 19 -2 0 -12 -4 -23 -9z"/>
<path d="M491 3491 c-8 -5 -9 -11 -3 -15 5 -3 12 1 16 9 6 17 6 18 -13 6z"/>
<path d="M3501 3321 c-8 -14 -7 -22 3 -30 18 -15 32 4 17 23 -6 7 -8 16 -4 19
3 4 3 7 0 7 -3 0 -11 -9 -16 -19z m19 -21 c0 -5 -2 -10 -4 -10 -3 0 -8 5 -11
10 -3 6 -1 10 4 10 6 0 11 -4 11 -10z"/>
<path d="M469 3283 c-13 -17 -13 -17 5 -3 18 14 18 13 12 -10 -6 -22 -5 -23 5
-7 16 26 -3 44 -22 20z"/>
<path d="M1405 3252 c-5 -4 -12 -16 -13 -27 -4 -23 0 -20 17 13 12 24 12 26
-4 14z"/>
<path d="M1725 3252 c-5 -4 -12 -16 -13 -27 -4 -23 0 -20 17 13 12 24 12 26
-4 14z"/>
<path d="M1950 3240 c6 -11 13 -20 16 -20 2 0 0 9 -6 20 -6 11 -13 20 -16 20
-2 0 0 -9 6 -20z"/>
<path d="M1976 3246 c3 -8 13 -17 21 -20 25 -10 23 -3 -3 17 -18 13 -22 14
-18 3z"/>
<path d="M2045 3243 c-15 -12 -16 -14 -3 -10 9 3 18 1 21 -6 2 -6 6 -4 10 6 9
23 -5 28 -28 10z"/>
<path d="M2093 3245 c-3 -9 -3 -18 -1 -21 3 -3 8 4 11 16 6 23 -1 27 -10 5z"/>
<path d="M2430 3240 c6 -11 13 -20 16 -20 2 0 0 9 -6 20 -6 11 -13 20 -16 20
-2 0 0 -9 6 -20z"/>
<path d="M2456 3246 c3 -8 13 -17 21 -20 25 -10 23 -3 -3 17 -18 13 -22 14
-18 3z"/>
<path d="M2525 3243 c-15 -12 -16 -14 -3 -10 9 3 18 1 21 -6 2 -6 6 -4 10 6 9
23 -5 28 -28 10z"/>
<path d="M2573 3245 c-3 -9 -3 -18 -1 -21 3 -3 8 4 11 16 6 23 -1 27 -10 5z"/>
<path d="M2910 3240 c6 -11 13 -20 16 -20 2 0 0 9 -6 20 -6 11 -13 20 -16 20
-2 0 0 -9 6 -20z"/>
<path d="M2936 3246 c3 -8 13 -17 21 -20 25 -10 23 -3 -3 17 -18 13 -22 14
-18 3z"/>
<path d="M3005 3243 c-15 -12 -16 -14 -3 -10 9 3 18 1 21 -6 2 -6 6 -4 10 6 9
23 -5 28 -28 10z"/>
<path d="M3053 3245 c-3 -9 -3 -18 -1 -21 3 -3 8 4 11 16 6 23 -1 27 -10 5z"/>
<path d="M3325 3252 c-5 -4 -12 -16 -13 -27 -4 -23 0 -20 17 13 12 24 12 26
-4 14z"/>
<path d="M1371 3234 c0 -11 3 -14 6 -6 3 7 2 16 -1 19 -3 4 -6 -2 -5 -13z"/>
<path d="M1562 3241 c-11 -7 -11 -9 0 -14 9 -3 15 1 15 9 0 8 -1 14 -1 14 -1
0 -7 -4 -14 -9z"/>
<path d="M1691 3234 c0 -11 3 -14 6 -6 3 7 2 16 -1 19 -3 4 -6 -2 -5 -13z"/>
<path d="M1882 3241 c-11 -7 -11 -9 0 -14 9 -3 15 1 15 9 0 8 -1 14 -1 14 -1
0 -7 -4 -14 -9z"/>
<path d="M3291 3234 c0 -11 3 -14 6 -6 3 7 2 16 -1 19 -3 4 -6 -2 -5 -13z"/>
<path d="M1264 3233 c4 -5 13 -8 19 -8 7 -1 11 -7 9 -14 -1 -7 2 -10 8 -6 14
9 -7 35 -28 35 -8 0 -12 -3 -8 -7z"/>
<path d="M1273 3165 c0 -8 4 -12 9 -9 5 3 6 10 3 15 -9 13 -12 11 -12 -6z"/>
<path d="M486 3131 c-17 -6 -17 -8 -4 -14 10 -3 19 0 22 9 3 8 4 14 3 13 -1 0
-11 -4 -21 -8z"/>
<path d="M479 3092 c9 -7 10 -11 2 -15 -7 -4 -8 -5 0 -3 15 2 13 20 -3 24 -10
3 -10 2 1 -6z"/>
<path d="M1998 3028 c8 -10 9 -19 3 -22 -5 -4 -12 -2 -16 4 -8 13 -25 3 -25
-13 0 -7 4 -6 11 3 9 13 10 12 5 -2 -7 -22 2 -23 26 -1 10 9 18 11 18 6 0 -6
-8 -14 -17 -19 -23 -10 -54 -13 -48 -5 9 16 -16 34 -51 37 -23 1 -32 -1 -24
-6 8 -5 18 -6 24 -3 5 4 6 1 1 -6 -6 -10 -3 -11 14 -2 14 8 21 8 21 1 0 -5 -7
-10 -15 -10 -8 0 -15 -4 -15 -10 0 -5 -4 -10 -10 -10 -5 0 -9 5 -7 11 1 6 -4
14 -11 16 -7 3 -11 -1 -10 -8 2 -7 -7 -14 -19 -15 -12 -1 -21 4 -20 10 1 6 -9
10 -23 8 -33 -5 -22 5 12 12 17 3 27 0 25 -6 -1 -6 4 -13 12 -15 10 -4 11 -1
3 13 -7 12 -22 18 -45 19 -19 0 -33 -4 -30 -9 3 -5 0 -6 -8 -4 -8 3 -13 11
-11 17 4 20 -14 11 -28 -13 -17 -33 -36 -39 -38 -13 -1 15 1 18 7 9 6 -11 10
-10 15 4 3 9 4 19 1 22 -3 3 -5 1 -5 -4 0 -5 -10 -10 -22 -11 -24 -2 -40 -22
-33 -41 3 -7 0 -10 -5 -7 -6 3 -11 1 -11 -4 -1 -6 -2 -17 -3 -23 -1 -7 -8 -12
-15 -10 -8 2 -11 -3 -8 -12 4 -9 -2 -17 -14 -21 -17 -6 -18 -9 -7 -22 7 -8 21
-19 33 -23 17 -7 17 -9 3 -9 -10 -1 -18 -6 -18 -12 0 -5 -5 -7 -10 -4 -6 4 -7
11 -4 17 5 7 2 8 -5 4 -9 -6 -9 -12 3 -24 10 -12 12 -22 5 -34 -8 -14 -7 -16
4 -12 8 3 14 15 13 26 -1 13 6 22 17 24 18 2 18 2 0 -18 -20 -23 -20 -27 -1
-40 10 -7 8 -8 -5 -4 -15 5 -17 2 -12 -15 6 -16 4 -20 -6 -14 -8 5 -11 5 -7 0
4 -4 3 -16 -3 -26 -7 -15 -6 -17 6 -13 8 3 12 11 8 17 -3 6 -1 7 6 3 6 -4 9
-11 6 -16 -3 -4 -2 -10 2 -13 5 -2 2 -2 -5 -1 -9 3 -10 -4 -6 -24 4 -15 7 -31
8 -37 0 -5 6 -14 11 -18 6 -5 2 -6 -8 -3 -15 5 -17 2 -12 -15 6 -16 4 -20 -6
-14 -8 5 -11 5 -7 0 4 -4 3 -16 -3 -26 -7 -15 -6 -17 6 -13 8 3 12 11 8 17 -3
6 -1 7 6 3 6 -4 9 -11 6 -16 -3 -4 -2 -10 2 -13 5 -2 2 -2 -5 -1 -9 3 -10 -4
-6 -24 4 -15 7 -31 8 -37 0 -5 6 -14 11 -18 6 -5 2 -6 -8 -3 -15 5 -17 2 -12
-15 4 -12 3 -19 -1 -16 -5 3 -10 -6 -10 -19 -2 -21 1 -23 13 -13 11 10 14 10
11 -2 -2 -8 3 -13 10 -11 8 1 11 -2 7 -8 -4 -7 -11 -8 -18 -1 -8 6 -19 4 -32
-6 -16 -13 -17 -15 -2 -10 23 8 53 -3 37 -13 -8 -5 -9 -13 -4 -21 12 -20 12
-46 -1 -46 -6 0 -11 16 -10 38 1 21 -3 35 -8 32 -4 -2 -6 -10 -4 -16 2 -7 -3
-21 -12 -32 -15 -18 -15 -19 2 -6 10 8 17 9 17 3 0 -6 -8 -16 -17 -22 -17 -11
-17 -11 1 -6 13 5 17 2 12 -9 -3 -8 -1 -15 4 -15 6 0 10 5 10 10 0 6 5 10 11
10 8 0 9 -4 0 -13 -6 -8 -8 -17 -4 -20 10 -10 -6 -8 -30 4 -21 9 -21 9 -3 -5
19 -15 13 -41 -7 -29 -7 3 -4 -3 6 -14 20 -23 23 -40 4 -24 -10 8 -14 7 -14
-4 0 -8 4 -12 8 -9 4 2 10 0 14 -5 3 -5 -3 -15 -12 -21 -15 -10 -16 -11 -1 -6
13 4 16 -1 14 -19 -1 -13 -9 -32 -17 -42 -13 -16 -12 -17 4 -4 10 8 17 9 17 3
0 -6 -8 -16 -17 -22 -17 -11 -17 -11 1 -6 13 5 17 2 12 -9 -3 -8 -1 -15 4 -15
6 0 10 5 10 10 0 6 5 10 11 10 8 0 9 -4 0 -13 -6 -8 -8 -17 -4 -20 10 -10 -6
-8 -30 4 -21 9 -21 9 -3 -5 19 -15 13 -41 -7 -29 -7 3 -4 -3 6 -14 20 -23 23
-40 4 -24 -10 8 -14 7 -14 -4 0 -8 4 -12 8 -9 4 2 10 0 14 -5 3 -5 -3 -15 -12
-21 -15 -10 -16 -11 -1 -6 23 7 17 -39 -8 -60 -18 -14 -18 -15 4 -4 24 12 29
2 10 -19 -10 -11 -10 -13 0 -7 15 9 15 1 2 -24 -8 -16 -8 -18 4 -14 9 3 14 11
13 16 -1 6 5 13 13 15 12 4 12 3 2 -5 -17 -12 -17 -22 0 -34 10 -7 9 -8 -5 -4
-14 5 -16 1 -11 -22 4 -15 7 -31 8 -37 0 -5 6 -14 11 -18 6 -5 2 -6 -8 -3 -15
5 -17 2 -12 -15 6 -16 4 -20 -6 -14 -8 5 -11 5 -7 0 4 -4 3 -16 -3 -26 -7 -15
-6 -17 6 -13 8 3 12 11 8 17 -3 6 -1 7 6 3 6 -4 9 -11 6 -16 -3 -4 -2 -10 2
-13 5 -2 2 -2 -5 -1 -9 3 -10 -4 -6 -24 4 -15 7 -31 8 -37 0 -5 6 -14 11 -18
6 -5 2 -6 -8 -3 -15 5 -17 2 -12 -15 5 -16 4 -19 -5 -14 -9 6 -11 4 -5 -5 6
-9 4 -12 -7 -8 -8 4 -15 0 -15 -7 0 -10 5 -11 19 -4 12 7 18 6 18 -1 0 -6 5
-8 10 -5 6 3 10 1 10 -5 0 -7 -6 -10 -13 -7 -8 3 -20 1 -28 -5 -12 -8 -12 -9
1 -5 8 2 21 -2 28 -9 7 -8 9 -14 3 -14 -5 0 -8 -8 -6 -17 2 -10 4 -18 5 -18 1
0 3 -9 4 -21 1 -11 -3 -21 -9 -21 -6 0 -10 18 -10 44 2 47 -4 53 -23 23 -7
-11 -9 -19 -5 -18 5 2 8 -1 8 -7 0 -5 -4 -9 -8 -7 -5 1 -6 -2 -2 -8 3 -6 11
-7 17 -4 6 4 8 1 6 -7 -3 -8 -11 -13 -17 -11 -7 1 -10 -2 -6 -8 3 -6 11 -7 17
-4 7 5 9 1 5 -9 -3 -10 -2 -17 3 -17 6 0 10 5 10 10 0 6 5 10 11 10 8 0 9 -4
0 -13 -6 -8 -8 -17 -4 -20 10 -10 -6 -8 -30 4 -22 10 -22 10 -2 -6 19 -15 19
-17 2 -29 -15 -12 -16 -14 -2 -20 8 -3 15 -10 15 -16 0 -6 -4 -9 -9 -5 -5 3
-12 1 -15 -4 -7 -11 13 -9 33 3 12 8 11 11 -3 21 -14 11 -15 14 -1 25 9 7 18
10 22 6 3 -3 1 -6 -5 -6 -7 0 -12 -5 -12 -11 0 -5 4 -8 8 -5 4 2 8 -6 8 -19 0
-13 -4 -21 -10 -18 -5 4 -7 -1 -3 -10 3 -9 1 -19 -5 -23 -6 -4 -8 -3 -5 2 3 6
-4 11 -16 11 -20 2 -20 1 -4 -8 17 -10 17 -13 3 -34 -14 -22 -14 -22 9 -11 13
6 21 14 19 18 -2 3 0 9 5 12 20 13 3 -23 -22 -47 -28 -25 -28 -25 -6 -32 15
-5 18 -10 9 -15 -9 -5 -8 -9 4 -13 8 -3 18 -1 22 5 5 7 2 8 -6 3 -8 -5 -11 -4
-6 3 3 6 0 14 -8 19 -11 6 -12 13 -6 23 8 13 10 12 10 -3 0 -10 5 -15 10 -12
6 4 9 1 8 -7 -2 -7 4 -12 12 -10 8 2 12 0 7 -4 -12 -12 23 -42 44 -37 10 3 19
9 19 14 0 5 5 9 11 9 8 0 9 -4 0 -13 -6 -8 -8 -17 -5 -20 10 -10 -40 -4 -53 6
-9 6 -13 6 -13 -2 0 -13 -1 -13 78 -16 34 -1 57 2 50 6 -7 4 -16 5 -22 2 -5
-4 -6 0 -1 8 8 12 6 12 -8 0 -21 -16 -23 -5 -3 15 17 17 27 18 24 3 -2 -6 3
-14 11 -17 8 -2 11 0 7 6 -9 16 14 26 27 13 9 -9 8 -10 -7 -5 -16 6 -17 4 -7
-14 21 -39 37 -37 32 6 -1 6 3 12 9 12 6 0 8 -4 5 -10 -3 -5 1 -10 10 -10 9 0
14 3 12 8 -3 4 14 7 38 8 24 0 42 -3 40 -6 -3 -4 -16 -6 -30 -5 -14 2 -25 -1
-25 -6 0 -6 -4 -8 -8 -5 -5 3 -9 -1 -9 -9 0 -16 13 -20 19 -6 2 5 12 11 23 13
14 2 20 -2 19 -14 -1 -10 2 -15 7 -12 5 3 8 13 7 22 -2 9 2 16 9 15 8 -2 10 4
6 14 -5 11 -3 14 6 8 10 -6 11 -3 3 12 -7 12 -7 25 -1 35 7 12 5 20 -8 28 -17
11 -17 11 0 6 14 -5 16 0 13 29 -3 20 0 35 6 35 5 0 7 -7 4 -16 -4 -9 -2 -22
4 -29 8 -9 8 -15 0 -20 -6 -3 -8 -11 -4 -16 3 -5 0 -18 -8 -27 -12 -16 -11
-16 6 -2 17 14 18 13 12 -7 -4 -12 -3 -24 2 -27 8 -5 9 31 2 59 -1 6 -1 12 0
15 7 18 7 39 0 35 -5 -3 -7 13 -5 35 2 22 -1 42 -6 45 -5 3 -7 0 -4 -7 3 -7
-4 -19 -15 -26 -11 -7 -20 -8 -20 -3 0 5 7 12 16 15 15 6 15 8 -2 27 -12 13
-14 19 -5 17 7 -2 16 3 19 11 3 8 0 11 -7 7 -6 -4 -11 -2 -11 4 0 6 6 10 13 9
30 -4 40 1 28 14 -6 8 -7 18 -3 22 4 5 1 5 -5 1 -16 -9 -17 10 -3 19 8 5 7 11
-1 21 -9 11 -8 15 5 20 9 3 16 9 16 13 0 11 -33 10 -47 -2 -9 -6 -13 -6 -13 1
0 5 14 15 30 22 26 11 43 32 23 29 -5 -1 -14 -1 -22 0 -16 1 -5 16 11 16 6 0
13 7 15 15 3 9 1 11 -4 5 -9 -12 -28 -13 -38 -3 -4 4 2 13 14 20 27 16 28 32
1 18 -11 -6 -20 -7 -19 -3 1 4 0 10 -1 13 -1 3 -3 15 -4 27 -2 16 1 20 9 13 7
-5 14 -9 16 -7 2 1 -2 -3 -9 -10 -8 -7 -9 -13 -3 -17 5 -4 15 2 21 13 9 17 6
22 -15 33 l-24 13 29 20 c17 11 30 24 30 28 0 5 -4 6 -9 2 -5 -3 -12 -1 -16 5
-3 6 1 13 9 16 20 8 21 21 1 21 -8 0 -12 -4 -9 -8 2 -4 -2 -9 -8 -12 -10 -3
-10 -7 1 -20 7 -10 9 -17 3 -17 -15 0 -20 20 -17 63 2 20 0 35 -3 33 -4 -2 -8
7 -9 21 0 15 2 21 6 15 4 -7 14 -6 31 4 23 14 23 14 3 9 -13 -4 -23 -3 -24 2
0 4 -2 18 -3 31 -2 12 2 22 8 21 25 -3 36 2 33 14 -1 6 4 11 10 10 7 -2 12 2
10 9 -1 7 3 12 10 13 6 0 15 3 18 7 4 4 15 -1 24 -10 9 -10 13 -13 9 -8 -14
18 -8 27 11 16 22 -11 42 -14 25 -2 -7 4 -8 15 -3 27 6 17 8 17 8 3 1 -16 7
-20 27 -17 4 0 11 -5 16 -13 7 -9 8 -7 4 7 -6 20 -6 20 9 1 18 -23 20 -14 4
16 -11 21 -12 21 -25 3 -12 -16 -14 -16 -14 -3 0 9 6 18 14 21 17 7 57 -28 52
-46 -1 -6 -1 -9 1 -4 3 4 8 5 12 3 4 -3 8 1 8 9 0 8 -5 11 -11 8 -6 -3 -6 0 1
7 9 10 15 10 28 -4 9 -9 20 -14 25 -11 5 3 11 0 13 -5 3 -6 4 -5 3 2 -2 7 -8
12 -14 11 -5 -1 -13 4 -16 13 -4 11 -2 12 14 4 10 -5 25 -7 33 -4 8 3 18 0 22
-6 3 -6 1 -9 -6 -8 -6 2 -13 -3 -15 -10 -1 -7 0 -8 3 -2 3 6 12 3 21 -8 10 -9
14 -13 10 -8 -11 14 -10 23 5 23 6 0 17 2 22 3 21 5 36 -1 29 -12 -5 -7 -3 -8
7 -2 22 14 53 11 67 -6 10 -13 11 -12 5 4 -5 14 -3 17 7 11 9 -5 11 -4 6 4 -4
6 -11 9 -16 6 -4 -3 -11 3 -15 13 -6 16 -7 16 -20 -2 -13 -18 -14 -18 -12 2 1
21 10 22 44 4 26 -15 46 -16 38 -2 -12 20 8 10 31 -16 13 -14 24 -20 24 -15 0
6 10 11 22 11 17 0 19 -3 10 -12 -7 -7 -12 -16 -12 -22 0 -5 6 -2 13 9 8 10
19 15 25 11 6 -3 14 -2 17 4 5 8 12 7 23 -2 12 -10 14 -10 8 0 -8 14 6 16 20
2 6 -6 15 -5 24 1 13 9 12 10 -2 6 -9 -3 -21 0 -27 6 -15 18 3 41 27 35 16 -5
19 -2 14 11 -5 14 -4 15 14 1 18 -14 18 -14 5 3 -11 14 -16 15 -29 5 -13 -11
-14 -11 -7 2 13 22 16 62 3 54 -7 -4 -8 -2 -4 5 6 9 11 9 21 1 10 -8 15 -8 21
1 4 8 3 9 -4 5 -16 -10 -15 7 1 23 10 11 8 11 -10 2 -27 -13 -44 -14 -23 -1
11 7 11 10 2 10 -7 0 -11 4 -7 9 3 5 -3 12 -12 14 -17 4 -17 5 0 6 11 1 15 6
11 13 -4 7 -3 8 5 4 6 -4 9 -12 6 -17 -4 -5 2 -6 11 -2 12 4 14 8 5 11 -9 3
-7 10 6 25 10 11 13 17 6 14 -22 -14 -37 36 -23 82 7 24 5 29 -6 24 -8 -3 -12
-9 -9 -13 3 -5 -4 -6 -16 -3 -20 6 -20 6 2 17 12 6 25 18 27 26 4 11 1 10 -12
-3 -21 -21 -33 -23 -16 -2 16 20 6 19 -14 -1 -9 -9 -16 -11 -16 -4 0 6 -4 8
-10 5 -5 -3 -10 -1 -10 4 0 16 -24 9 -32 -9 -6 -13 -7 -12 -7 1 -1 9 -8 19
-15 22 -11 4 -13 1 -10 -11 4 -10 2 -13 -3 -7 -11 14 -33 17 -33 5 0 -6 -5
-10 -11 -10 -5 0 -8 4 -4 9 3 5 0 13 -7 18 -17 10 -69 12 -62 2 2 -4 11 -6 19
-2 11 4 15 -2 14 -18 -1 -18 -2 -20 -6 -6 -4 15 -7 16 -21 5 -12 -10 -14 -10
-8 0 4 7 1 12 -9 12 -9 0 -14 4 -11 9 4 5 -2 8 -11 7 -10 -2 -21 4 -26 13 -5
11 -6 9 -3 -7 4 -19 1 -22 -22 -19 -14 2 -29 12 -33 23 -6 14 -8 15 -8 3 -1
-9 2 -19 6 -23 11 -10 12 -37 2 -30 -5 3 -7 10 -4 15 4 5 1 9 -4 9 -6 0 -11
-5 -11 -11 0 -7 -7 -8 -17 -4 -30 11 -38 11 -35 -3 1 -8 -2 -11 -8 -7 -6 3 -8
11 -5 16 4 5 1 9 -4 9 -6 0 -11 -4 -11 -10 0 -14 -13 -12 -35 4 -18 13 -17 14
8 11 15 -2 27 0 27 4 0 4 -15 7 -33 7 -27 -1 -33 -4 -29 -18 2 -10 -1 -18 -7
-18 -7 0 -9 5 -6 10 11 18 -24 11 -35 -7 -10 -16 -11 -16 -6 -1 11 37 -61 48
-89 13 -14 -16 -16 -17 -11 -2 9 27 13 43 9 35 -6 -11 -15 -9 -36 6 -15 12
-16 18 -8 35 10 17 9 20 -5 14 -12 -4 -15 -3 -10 5 4 7 3 12 -3 12 -18 0 -21
-18 -3 -25 16 -6 16 -7 -1 -17 -10 -5 -21 -7 -24 -4 -4 3 -1 6 6 6 7 0 9 5 4
13 -12 19 -13 40 -1 54 10 12 5 17 -17 14 -5 -1 -1 5 10 14 11 8 25 19 31 24
7 5 16 7 20 3 5 -4 2 1 -5 11 -11 14 -11 17 -1 17 8 0 11 3 7 6 -3 3 -14 1
-24 -5 -14 -8 -14 -10 -3 -11 13 0 13 -1 0 -10 -8 -5 -19 -10 -25 -10 -5 0 -3
5 5 10 13 8 13 10 1 10 -11 0 -10 4 4 14 18 13 18 13 -1 24 -24 14 -9 16 16 2
16 -8 18 -8 14 5 -6 15 -16 19 -44 16 -13 -2 -13 0 -1 8 8 5 20 7 27 4 6 -2
15 0 19 6 3 7 0 8 -9 5 -9 -3 -16 -1 -16 6 0 6 -5 8 -12 4 -7 -4 -8 -3 -4 5 4
6 12 9 17 5 17 -10 41 17 28 32 -6 7 -16 12 -22 10 -7 -1 -9 -1 -4 1 4 3 4 10
1 15 -4 7 -2 8 4 4 7 -4 12 -1 12 6 1 7 6 4 13 -7 7 -11 18 -21 25 -23 8 -1
11 2 8 7 -4 5 -2 13 4 16 8 5 8 11 0 20 -8 10 -8 15 1 21 8 4 9 3 5 -5 -4 -6
0 -14 9 -17 13 -5 13 -9 3 -23 -10 -13 -10 -14 2 -4 11 10 17 9 32 -4 11 -10
18 -11 18 -5 0 7 -4 12 -8 12 -5 0 -14 12 -21 28 -10 23 -10 25 2 10 8 -10 17
-18 20 -18 4 0 4 8 0 18 -3 9 -3 14 1 10 4 -3 9 -14 10 -25 2 -12 11 -17 25
-16 12 2 20 -1 16 -6 -3 -5 -1 -12 4 -15 5 -3 7 8 6 24 -2 24 0 28 10 20 9 -8
15 -7 18 2 4 10 6 10 6 1 1 -7 6 -13 12 -13 5 0 7 5 3 12 -5 7 -3 8 7 2 19
-12 39 -14 39 -4 0 4 7 11 16 14 14 5 15 4 4 -9 -10 -13 -9 -15 9 -15 12 0 20
4 17 9 -4 5 5 4 18 -2 13 -7 22 -16 19 -20 -3 -5 4 -4 16 2 11 7 21 8 21 4 0
-4 8 1 17 12 13 16 14 17 9 3 -17 -49 -18 -54 -6 -35 11 18 12 18 26 0 13 -17
14 -17 7 2 -6 18 -5 19 11 6 19 -16 58 -23 50 -9 -3 4 0 8 5 8 6 0 11 -6 11
-12 0 -9 3 -8 10 2 12 19 31 20 53 2 11 -10 17 -11 17 -4 0 7 -4 12 -8 12 -5
0 -14 12 -21 28 -10 23 -10 25 2 10 8 -10 17 -18 20 -18 4 0 4 8 0 18 -3 9 -3
14 1 10 4 -3 9 -14 10 -25 2 -12 11 -17 25 -16 12 2 20 -1 16 -6 -3 -5 -1 -12
4 -15 5 -3 7 8 6 24 -2 24 0 28 10 20 9 -8 15 -7 18 2 4 10 6 10 6 1 1 -7 6
-13 12 -13 5 0 7 5 3 12 -5 7 -3 8 7 2 19 -12 39 -14 39 -4 0 4 7 11 16 14 14
5 15 4 4 -9 -10 -13 -9 -15 9 -15 12 0 20 4 17 9 -4 5 5 4 18 -2 13 -7 22 -16
19 -20 -3 -5 4 -4 16 2 11 7 21 8 21 4 0 -4 8 1 17 12 13 16 14 17 9 3 -17
-49 -18 -54 -6 -35 11 18 12 18 26 0 13 -17 14 -17 7 2 -6 18 -5 19 11 6 19
-16 58 -23 50 -9 -3 4 0 8 5 8 6 0 11 -6 11 -12 0 -7 5 -5 11 5 13 22 30 22
22 0 -6 -15 -5 -16 9 -3 14 13 14 16 1 23 -8 5 -20 4 -29 -3 -7 -7 -14 -8 -14
-3 0 5 -7 10 -15 10 -8 0 -12 -4 -10 -8 3 -4 -2 -9 -10 -13 -21 -8 -28 10 -7
20 9 4 20 6 25 6 4 -1 7 2 7 7 0 5 7 12 16 15 15 6 15 4 3 -10 -12 -15 -12
-16 6 -11 11 4 33 0 48 -8 15 -8 25 -9 21 -4 -4 8 2 9 17 4 17 -4 20 -3 10 3
-14 10 -6 36 8 28 4 -3 7 11 6 30 -1 19 2 37 7 40 14 9 -2 23 -20 18 -15 -5
-15 -5 1 6 9 6 23 8 30 5 6 -4 4 0 -5 8 -14 11 -15 16 -5 27 8 8 8 11 1 7 -17
-10 -25 20 -9 33 7 6 12 19 10 28 -2 9 -4 20 -4 24 -1 3 -9 9 -18 11 -17 4
-17 5 0 6 9 0 17 5 17 10 0 5 8 12 18 14 16 4 16 5 -1 6 -10 0 -15 6 -12 11 4
6 1 9 -7 8 -8 -2 -12 5 -11 19 2 15 -5 26 -20 33 -20 10 -20 10 -4 -3 23 -19
22 -24 -8 -24 -23 0 -43 27 -37 50 1 5 -2 6 -8 2 -6 -3 -8 -11 -5 -16 4 -5 2
-9 -4 -9 -5 0 -13 5 -16 10 -8 13 -25 3 -25 -13 0 -7 4 -6 10 3 5 8 10 11 10
5 0 -5 -4 -16 -9 -24 -7 -11 -10 -10 -15 6 -4 11 -16 29 -29 39 -16 14 -18 14
-9 2 8 -10 9 -19 3 -22 -5 -4 -12 -2 -16 4 -8 13 -25 3 -25 -13 0 -7 4 -6 11
3 9 13 10 12 5 -2 -7 -22 2 -23 26 -1 10 9 18 11 18 6 0 -6 -8 -14 -17 -19
-23 -10 -54 -13 -48 -5 9 16 -16 34 -51 37 -23 1 -32 -1 -24 -6 8 -5 18 -6 24
-3 5 4 6 1 1 -6 -6 -10 -3 -11 14 -2 14 8 21 8 21 1 0 -5 -7 -10 -15 -10 -8 0
-15 -4 -15 -10 0 -5 -4 -10 -10 -10 -5 0 -9 5 -7 11 1 6 -4 14 -11 16 -7 3
-11 -1 -10 -8 2 -7 -7 -14 -19 -15 -12 -1 -21 4 -20 10 1 6 -8 10 -20 8 -12
-2 -23 1 -26 5 -3 4 10 8 28 8 19 0 33 -3 32 -8 -1 -5 4 -12 12 -14 10 -4 11
-1 3 13 -7 13 -23 18 -61 19 -29 1 -48 -1 -44 -4 22 -16 33 -40 23 -46 -6 -4
-10 -3 -9 2 4 20 -2 24 -18 12 -9 -8 -14 -9 -11 -4 14 22 -11 40 -56 40 -24 0
-42 -3 -40 -7 3 -5 -2 -8 -11 -8 -9 0 -14 4 -11 8 2 4 -15 8 -39 7 -24 0 -41
-4 -38 -9 3 -5 0 -7 -8 -4 -8 3 -14 10 -14 16 0 5 -2 13 -5 16 -4 3 -6 -5 -6
-19 0 -13 3 -22 7 -19 4 2 11 -1 15 -8 4 -7 4 -10 -1 -6 -4 4 -15 2 -23 -5 -9
-6 -13 -7 -10 -2 14 23 -11 39 -62 40 -28 1 -45 -2 -38 -6 6 -4 16 -5 22 -2 5
3 6 1 2 -5 -5 -8 -2 -10 8 -6 9 3 16 1 16 -6 0 -6 -4 -8 -10 -5 -5 3 -10 1
-10 -4 0 -6 -4 -11 -10 -11 -5 0 -9 5 -7 11 1 6 -4 14 -12 17 -8 2 -11 0 -7
-6 9 -16 -14 -26 -27 -13 -9 9 -8 10 7 5 16 -6 17 -4 7 14 -21 39 -37 37 -32
-5 1 -7 -3 -13 -9 -13 -6 0 -8 5 -5 10 3 6 -1 10 -10 10 -10 0 -13 -5 -9 -12
4 -7 -8 -3 -28 9 -36 21 -48 21 -48 -1 0 -6 5 -4 10 4 5 8 10 11 10 5 0 -5 -4
-16 -9 -24 -7 -11 -10 -10 -15 6 -4 11 -16 29 -29 39 -16 14 -18 14 -9 2 8
-10 9 -19 3 -22 -5 -4 -12 -2 -16 4 -8 13 -25 3 -25 -13 0 -7 4 -6 11 3 9 13
10 12 5 -2 -7 -22 2 -23 26 -1 10 9 18 11 18 6 0 -6 -8 -14 -17 -19 -21 -9
-56 -14 -49 -6 3 2 1 13 -5 24 -8 15 -14 17 -24 8 -9 -8 -15 -8 -20 0 -8 12
-25 4 -25 -13 0 -7 4 -6 10 3 5 8 10 11 10 5 0 -5 -4 -16 -9 -24 -7 -11 -10
-10 -15 6 -4 11 -16 29 -29 39 -16 14 -18 14 -9 2z m-227 -35 c7 -10 9 -15 5
-11 -5 4 -15 3 -22 -3 -11 -9 -13 2 -5 29 2 6 10 1 22 -15z m315 -8 c-9 -9
-16 -13 -16 -8 0 12 22 34 28 28 2 -2 -3 -11 -12 -20z m355 16 c7 11 9 11 9
-2 0 -26 -26 -31 -27 -5 0 11 1 15 4 7 5 -11 7 -11 14 0z m132 -4 c-2 -4 -3
-11 -3 -17 0 -5 -4 -10 -10 -10 -5 0 -9 6 -7 13 1 7 -7 11 -23 10 -22 -2 -23
-2 -5 6 22 9 51 8 48 -2z m97 0 c0 -7 4 -6 10 3 8 13 10 12 10 -2 0 -21 -11
-23 -29 -5 -12 10 -13 9 -7 -7 5 -16 4 -17 -9 -6 -10 8 -15 9 -15 1 0 -6 -4
-11 -8 -11 -5 0 -9 7 -9 15 0 8 4 12 9 9 4 -3 8 -1 8 3 0 5 9 9 20 10 11 1 20
-4 20 -10z m-980 -7 c0 -5 -5 -10 -11 -10 -5 0 -7 5 -4 10 3 6 8 10 11 10 2 0
4 -4 4 -10z m555 -10 c3 -5 1 -10 -4 -10 -6 0 -11 5 -11 10 0 6 2 10 4 10 3 0
8 -4 11 -10z m805 0 c0 -5 -4 -10 -10 -10 -5 0 -10 5 -10 10 0 6 5 10 10 10 6
0 10 -4 10 -10z m84 -61 c-3 -5 -11 -9 -17 -9 -7 0 -6 4 3 10 8 5 10 10 4 10
-7 0 -15 8 -18 17 -6 15 -5 15 13 -1 11 -10 18 -23 15 -27z m-1496 -33 c-10
-7 -14 -17 -10 -21 4 -5 1 -5 -5 -1 -18 10 -16 24 5 29 27 7 28 7 10 -7z
m1498 -33 c-2 -9 -8 -19 -14 -21 -15 -5 -16 14 -2 23 6 4 7 11 4 17 -4 6 -2 8
4 5 5 -4 9 -15 8 -24z m-11 -63 c3 -5 1 -10 -4 -10 -6 0 -11 5 -11 10 0 6 2
10 4 10 3 0 8 -4 11 -10z m-1472 -55 c-3 -9 -8 -14 -10 -11 -3 3 -2 9 2 15 9
16 15 13 8 -4z m1471 -32 c3 -12 -1 -20 -10 -20 -9 0 -11 4 -5 10 5 5 7 17 4
26 -4 9 -3 13 1 10 4 -4 8 -15 10 -26z m-1471 -48 c-3 -9 -8 -14 -10 -11 -3 3
-2 9 2 15 9 16 15 13 8 -4z m1467 12 c0 -2 -9 -10 -19 -19 -18 -16 -20 -15
-18 1 0 9 9 18 19 18 10 1 18 1 18 0z m-957 -38 c-9 -9 -12 -7 -10 9 1 14 5
18 11 12 7 -7 6 -14 -1 -21z m376 14 c-12 -15 -12 -16 3 -10 10 3 20 1 24 -6
4 -7 4 -9 -1 -5 -4 4 -14 3 -22 -3 -9 -9 -13 -8 -13 0 0 7 -8 6 -24 -4 -21
-14 -25 -14 -36 0 -7 8 -16 12 -21 9 -5 -3 -6 2 -2 11 5 13 7 14 14 3 7 -10 9
-11 9 0 0 7 5 10 11 6 8 -4 7 -9 -2 -15 -8 -5 -9 -9 -3 -9 5 0 15 5 22 12 7 7
12 9 12 4 0 -4 7 0 16 8 21 21 30 20 13 -1z m104 -14 c-9 -9 -12 -7 -10 9 1
14 5 18 11 12 7 -7 6 -14 -1 -21z m-593 -11 c0 -19 -16 -5 -17 14 -2 18 0 20
7 8 5 -8 10 -18 10 -22z m340 22 c0 -5 -2 -10 -4 -10 -3 0 -8 5 -11 10 -3 6
-1 10 4 10 6 0 11 -4 11 -10z m480 0 c0 -5 -2 -10 -4 -10 -3 0 -8 5 -11 10 -3
6 -1 10 4 10 6 0 11 -4 11 -10z m80 -2 c0 7 5 10 11 7 13 -9 7 -15 -19 -20
-15 -3 -19 0 -15 12 5 12 7 12 14 1 7 -10 9 -11 9 0z m-1297 -63 c-3 -9 -8
-14 -10 -11 -3 3 -2 9 2 15 9 16 15 13 8 -4z m367 1 c0 -3 -4 -8 -10 -11 -5
-3 -10 -1 -10 4 0 6 5 11 10 11 6 0 10 -2 10 -4z m-367 -81 c-3 -9 -8 -14 -10
-11 -3 3 -2 9 2 15 9 16 15 13 8 -4z m0 -80 c-3 -9 -8 -14 -10 -11 -3 3 -2 9
2 15 9 16 15 13 8 -4z m357 -135 c0 -5 -4 -10 -10 -10 -5 0 -10 5 -10 10 0 6
5 10 10 10 6 0 10 -4 10 -10z m30 -15 c7 -9 8 -15 2 -15 -5 0 -12 7 -16 15 -3
8 -4 15 -2 15 2 0 9 -7 16 -15z m-23 -27 c-3 -8 -6 -5 -6 6 -1 11 2 17 5 13 3
-3 4 -12 1 -19z m103 9 c0 -7 4 -6 10 3 6 9 10 10 10 3 0 -17 -17 -25 -25 -13
-5 8 -14 5 -28 -7 -15 -12 -18 -13 -9 -2 6 9 10 18 7 20 -2 3 5 5 15 6 11 1
20 -4 20 -10z m326 -14 c-10 -10 -19 5 -10 18 6 11 8 11 12 0 2 -7 1 -15 -2
-18z m-402 -9 c3 -8 2 -12 -4 -9 -6 3 -10 10 -10 16 0 14 7 11 14 -7z m-401
-31 c-7 -2 -13 -9 -13 -14 0 -6 5 -7 12 -3 7 4 8 3 4 -4 -4 -6 -13 -9 -22 -5
-11 4 -12 9 -3 19 6 8 17 14 23 13 7 0 6 -2 -1 -6z m-8 -53 c-3 -5 -2 -10 4
-10 5 0 9 -9 8 -19 -1 -14 -5 -17 -13 -10 -7 5 -11 18 -9 27 5 23 4 22 11 22
3 0 2 -4 -1 -10z m1125 -46 c0 -2 -7 -4 -15 -4 -8 0 -15 4 -15 10 0 5 7 7 15
4 8 -4 15 -8 15 -10z m-1115 -55 c1 -9 -3 -16 -9 -16 -6 0 -12 16 -12 35 -1
30 0 32 9 16 6 -10 12 -26 12 -35z m-2 -86 c-7 -2 -13 -9 -13 -14 0 -6 5 -7
12 -3 7 4 8 3 4 -4 -4 -6 -13 -9 -22 -5 -11 4 -12 9 -3 19 6 8 17 14 23 13 7
0 6 -2 -1 -6z m-8 -53 c-3 -5 -2 -10 4 -10 5 0 9 -9 8 -19 -1 -14 -5 -17 -13
-10 -7 5 -11 18 -9 27 5 23 4 22 11 22 3 0 2 -4 -1 -10z m748 -23 c-3 -4 -6
-7 -7 -5 -1 2 -8 12 -16 22 -14 18 -14 18 7 6 12 -8 19 -18 16 -23z m293 10
c8 3 14 -1 14 -8 0 -7 -3 -9 -7 -6 -3 4 -12 2 -20 -4 -10 -9 -13 -8 -13 0 0 7
-4 10 -8 7 -4 -2 -13 4 -20 14 -10 17 -9 17 15 5 14 -7 32 -11 39 -8z m-618 4
c-2 -20 4 -23 15 -8 10 14 15 14 37 2 24 -13 24 -14 3 -12 -13 1 -23 6 -23 12
0 5 -5 2 -11 -8 -6 -9 -14 -15 -19 -12 -4 3 -20 -9 -34 -26 -14 -17 -26 -26
-26 -20 0 6 -8 7 -17 4 -17 -7 -17 -6 0 11 9 10 14 22 11 28 -4 6 -2 8 4 4 6
-3 13 -2 17 3 3 6 13 7 23 4 14 -6 15 -4 5 8 -10 13 -10 16 2 16 7 0 14 -3 13
-6z m376 -7 c3 -8 2 -12 -4 -9 -6 3 -10 10 -10 16 0 14 7 11 14 -7z m176 2 c0
-2 -7 -6 -15 -10 -8 -3 -15 -1 -15 4 0 6 7 10 15 10 8 0 15 -2 15 -4z m-965
-87 c1 -9 -3 -16 -9 -16 -6 0 -12 16 -12 35 -1 30 0 32 9 16 6 -10 12 -26 12
-35z m8 -104 c-3 -9 -8 -14 -10 -11 -3 3 -2 9 2 15 9 16 15 13 8 -4z m0 -80
c-3 -9 -8 -14 -10 -11 -3 3 -2 9 2 15 9 16 15 13 8 -4z m0 -80 c-3 -9 -8 -14
-10 -11 -3 3 -2 9 2 15 9 16 15 13 8 -4z m0 -80 c-3 -9 -8 -14 -10 -11 -3 3
-2 9 2 15 9 16 15 13 8 -4z m347 -35 c12 -7 10 -9 -8 -7 -12 0 -22 5 -22 9 0
11 12 10 30 -2z m1 -54 c-9 -10 -9 -16 -1 -21 13 -8 -6 -35 -24 -35 -6 0 -2 7
8 15 18 14 15 20 -9 15 -5 -1 -1 8 9 19 21 23 35 29 17 7z m8 -89 c0 -9 -2 -9
-5 0 -3 7 -13 9 -22 6 -14 -4 -14 -3 -2 5 16 12 30 7 29 -11z m-39 -237 c0 -5
-5 -10 -11 -10 -5 0 -7 5 -4 10 3 6 8 10 11 10 2 0 4 -4 4 -10z"/>
<path d="M2010 1855 c-7 -9 -11 -18 -8 -20 3 -3 11 1 18 10 7 9 11 18 8 20 -3
3 -11 -1 -18 -10z"/>
<path d="M1637 3019 c7 -7 15 -10 18 -7 3 3 -2 9 -12 12 -14 6 -15 5 -6 -5z"/>
<path d="M2245 3021 c-6 -11 13 -26 22 -17 4 3 1 6 -6 6 -7 0 -9 5 -6 10 3 6
4 10 1 10 -3 0 -7 -4 -11 -9z"/>
<path d="M2275 3020 c3 -5 8 -10 11 -10 2 0 4 5 4 10 0 6 -5 10 -11 10 -5 0
-7 -4 -4 -10z"/>
<path d="M3073 3014 c-3 -8 -2 -19 3 -24 5 -5 9 1 9 16 0 28 -3 30 -12 8z"/>
<path d="M1633 2989 c-6 -6 -9 -18 -6 -27 4 -10 2 -13 -5 -8 -7 4 -12 3 -12
-2 0 -14 27 -22 28 -9 0 7 3 22 6 35 6 25 4 26 -11 11z"/>
<path d="M1236 2973 c-3 -3 -3 -10 0 -14 7 -12 34 -11 34 0 0 11 -26 22 -34
14z"/>
<path d="M1593 2925 c0 -8 4 -15 9 -15 4 0 8 4 8 9 0 6 -4 12 -8 15 -5 3 -9
-1 -9 -9z"/>
<path d="M1273 2845 c0 -8 4 -12 9 -9 5 3 6 10 3 15 -9 13 -12 11 -12 -6z"/>
<path d="M3145 2820 c-3 -6 1 -7 9 -4 18 7 21 14 7 14 -6 0 -13 -4 -16 -10z"/>
<path d="M491 2771 c-8 -5 -9 -11 -3 -15 5 -3 12 1 16 9 6 17 6 18 -13 6z"/>
<path d="M1236 2733 c-3 -3 -3 -10 0 -14 7 -12 34 -11 34 0 0 11 -26 22 -34
14z"/>
<path d="M491 2651 c-8 -5 -9 -11 -3 -15 5 -3 12 1 16 9 6 17 6 18 -13 6z"/>
<path d="M1608 2636 c-3 -16 -1 -23 7 -19 7 2 11 13 8 24 -7 25 -10 24 -15 -5z"/>
<path d="M2197 2613 c3 -7 6 -13 8 -13 2 0 5 6 8 13 3 8 -1 14 -8 14 -7 0 -11
-6 -8 -14z"/>
<path d="M2228 2606 c-11 -20 -10 -20 14 -4 15 10 29 13 34 8 5 -5 15 -5 24 0
8 5 11 10 5 11 -58 6 -67 5 -77 -15z"/>
<path d="M2333 2612 c0 -10 7 -19 13 -19 9 0 10 5 3 19 -5 10 -12 18 -14 18
-2 0 -3 -8 -2 -18z"/>
<path d="M2677 2613 c3 -7 6 -13 8 -13 2 0 5 6 8 13 3 8 -1 14 -8 14 -7 0 -11
-6 -8 -14z"/>
<path d="M2708 2606 c-11 -20 -10 -20 14 -4 15 10 29 13 34 8 5 -5 15 -5 24 0
8 5 11 10 5 11 -58 6 -67 5 -77 -15z"/>
<path d="M2813 2612 c0 -10 7 -19 13 -19 9 0 10 5 3 19 -5 10 -12 18 -14 18
-2 0 -3 -8 -2 -18z"/>
<path d="M479 2618 c0 -2 -2 -11 -4 -21 -3 -15 -1 -16 11 -6 7 6 11 15 8 20
-5 9 -13 12 -15 7z"/>
<path d="M1273 2605 c0 -8 4 -12 9 -9 5 3 6 10 3 15 -9 13 -12 11 -12 -6z"/>
<path d="M1236 2493 c-3 -3 -3 -10 0 -14 7 -12 34 -11 34 0 0 11 -26 22 -34
14z"/>
<path d="M1608 2476 c-3 -16 -1 -23 7 -19 7 2 11 13 8 24 -7 25 -10 24 -15 -5z"/>
<path d="M1990 2402 c0 -4 9 -8 20 -9 11 -1 20 2 20 5 0 4 -9 8 -20 9 -11 1
-20 -2 -20 -5z"/>
<path d="M1273 2365 c0 -8 4 -12 9 -9 5 3 6 10 3 15 -9 13 -12 11 -12 -6z"/>
<path d="M1987 2373 c-12 -12 -7 -22 8 -17 8 4 15 10 15 15 0 11 -14 12 -23 2z"/>
<path d="M469 2323 c-13 -17 -13 -17 5 -3 18 14 18 13 12 -10 -6 -22 -5 -23 5
-7 16 26 -3 44 -22 20z"/>
<path d="M2280 2276 c0 -8 4 -17 9 -20 5 -4 7 3 4 14 -6 23 -13 26 -13 6z"/>
<path d="M2595 2280 c3 -5 8 -10 11 -10 2 0 4 5 4 10 0 6 -5 10 -11 10 -5 0
-7 -4 -4 -10z"/>
<path d="M2156 2267 c3 -10 9 -15 12 -12 3 3 0 11 -7 18 -10 9 -11 8 -5 -6z"/>
<path d="M2556 2267 c3 -10 9 -15 12 -12 3 3 0 11 -7 18 -10 9 -11 8 -5 -6z"/>
<path d="M2666 2272 c-3 -6 -16 -9 -28 -7 -11 3 -18 1 -14 -2 4 -4 17 -8 29
-9 12 -1 28 -3 36 -5 7 -2 15 2 17 9 1 7 0 8 -3 2 -3 -7 -10 -5 -17 6 -9 11
-15 13 -20 6z"/>
<path d="M2322 2261 c-11 -7 -11 -9 1 -14 16 -6 27 0 27 15 0 10 -11 10 -28
-1z"/>
<path d="M1236 2253 c-3 -3 -3 -10 0 -14 7 -12 34 -11 34 0 0 11 -26 22 -34
14z"/>
<path d="M2765 2200 c-3 -6 1 -7 9 -4 18 7 21 14 7 14 -6 0 -13 -4 -16 -10z"/>
<path d="M486 2171 c-17 -6 -17 -8 -4 -14 10 -3 19 0 22 9 3 8 4 14 3 13 -1 0
-11 -4 -21 -8z"/>
<path d="M2770 2139 c0 -5 -5 -7 -12 -3 -7 4 -8 3 -4 -4 4 -6 13 -9 21 -6 8 4
12 10 9 15 -7 12 -14 11 -14 -2z"/>
<path d="M479 2132 c9 -7 10 -11 2 -15 -7 -4 -8 -5 0 -3 15 2 13 20 -3 24 -10
3 -10 2 1 -6z"/>
<path d="M1273 2125 c0 -8 4 -12 9 -9 5 3 6 10 3 15 -9 13 -12 11 -12 -6z"/>
<path d="M2750 2040 c0 -5 7 -7 15 -4 8 4 15 8 15 10 0 2 -7 4 -15 4 -8 0 -15
-4 -15 -10z"/>
<path d="M1236 2013 c-3 -3 -3 -10 0 -14 7 -12 34 -11 34 0 0 11 -26 22 -34
14z"/>
<path d="M2750 1959 c0 -5 5 -7 10 -4 6 3 10 8 10 11 0 2 -4 4 -10 4 -5 0 -10
-5 -10 -11z"/>
<path d="M485 1930 c-11 -5 -14 -9 -7 -9 7 -1 10 -5 7 -11 -3 -5 -4 -10 -1
-10 3 0 10 9 16 20 6 11 9 20 8 19 -2 0 -12 -4 -23 -9z"/>
<path d="M491 1891 c-8 -5 -9 -11 -3 -15 5 -3 12 1 16 9 6 17 6 18 -13 6z"/>
<path d="M1273 1885 c0 -8 4 -12 9 -9 5 3 6 10 3 15 -9 13 -12 11 -12 -6z"/>
<path d="M2715 1890 c-3 -5 -1 -10 4 -10 6 0 11 5 11 10 0 6 -2 10 -4 10 -3 0
-8 -4 -11 -10z"/>
<path d="M2536 1873 c-3 -4 -6 -11 -6 -17 0 -6 5 -4 10 4 6 10 10 11 10 3 0
-7 5 -13 10 -13 6 0 10 4 10 9 0 11 -26 22 -34 14z"/>
<path d="M2273 1845 c0 -8 4 -12 9 -9 5 3 6 10 3 15 -9 13 -12 11 -12 -6z"/>
<path d="M2000 1780 c-12 -7 -10 -9 7 -7 12 0 19 5 17 9 -6 10 -6 10 -24 -2z"/>
<path d="M1236 1773 c-3 -3 -3 -10 0 -14 7 -12 34 -11 34 0 0 11 -26 22 -34
14z"/>
<path d="M1994 1720 c2 -16 20 -14 24 2 3 10 2 10 -6 -1 -7 -9 -11 -10 -15 -2
-4 7 -5 8 -3 1z"/>
<path d="M1608 1676 c-3 -16 -1 -23 7 -19 7 2 11 13 8 24 -7 25 -10 24 -15 -5z"/>
<path d="M1990 1680 c0 -5 7 -7 15 -4 8 4 15 8 15 10 0 2 -7 4 -15 4 -8 0 -15
-4 -15 -10z"/>
<path d="M1273 1645 c0 -8 4 -12 9 -9 5 3 6 10 3 15 -9 13 -12 11 -12 -6z"/>
<path d="M485 1610 c-11 -5 -14 -9 -7 -9 7 -1 10 -5 7 -11 -3 -5 -4 -10 -1
-10 3 0 10 9 16 20 6 11 9 20 8 19 -2 0 -12 -4 -23 -9z"/>
<path d="M2000 1580 c-13 -8 -12 -10 3 -10 9 0 17 5 17 10 0 12 -1 12 -20 0z"/>
<path d="M491 1571 c-8 -5 -9 -11 -3 -15 5 -3 12 1 16 9 6 17 6 18 -13 6z"/>
<path d="M1608 1516 c-3 -16 -1 -23 7 -19 7 2 11 13 8 24 -7 25 -10 24 -15 -5z"/>
<path d="M469 1363 c-13 -17 -13 -17 5 -3 18 14 18 13 12 -10 -6 -22 -5 -23 5
-7 16 26 -3 44 -22 20z"/>
<path d="M1270 1320 c0 -5 5 -10 11 -10 5 0 7 5 4 10 -3 6 -8 10 -11 10 -2 0
-4 -4 -4 -10z"/>
<path d="M2002 1237 c-8 -10 -6 -13 7 -13 10 0 18 6 18 13 0 7 -4 13 -7 13 -4
0 -12 -6 -18 -13z"/>
<path d="M486 1211 c-17 -6 -17 -8 -4 -14 10 -3 19 0 22 9 3 8 4 14 3 13 -1 0
-11 -4 -21 -8z"/>
<path d="M479 1172 c9 -7 10 -11 2 -15 -7 -4 -8 -5 0 -3 15 2 13 20 -3 24 -10
3 -10 2 1 -6z"/>
<path d="M1270 1160 c0 -5 5 -10 11 -10 5 0 7 5 4 10 -3 6 -8 10 -11 10 -2 0
-4 -4 -4 -10z"/>
<path d="M1646 1015 c-3 -8 0 -17 6 -21 6 -4 8 -3 4 4 -3 5 -1 12 6 14 8 3 9
6 1 11 -6 4 -13 0 -17 -8z"/>
<path d="M1270 1000 c0 -5 5 -10 11 -10 5 0 7 5 4 10 -3 6 -8 10 -11 10 -2 0
-4 -4 -4 -10z"/>
<path d="M491 851 c-8 -5 -9 -11 -3 -15 5 -3 12 1 16 9 6 17 6 18 -13 6z"/>
<path d="M1252 798 c2 -6 14 -18 25 -25 17 -12 22 -12 29 -1 4 7 4 10 -1 6 -5
-5 -14 1 -22 12 -15 22 -37 27 -31 8z"/>
<path d="M1400 760 c6 -11 13 -20 16 -20 2 0 0 9 -6 20 -6 11 -13 20 -16 20
-2 0 0 -9 6 -20z"/>
<path d="M1821 777 c2 -1 14 -11 27 -21 12 -11 22 -16 22 -13 0 10 -31 37 -42
37 -6 0 -9 -1 -7 -3z"/>
<path d="M1880 760 c6 -11 13 -20 16 -20 2 0 0 9 -6 20 -6 11 -13 20 -16 20
-2 0 0 -9 6 -20z"/>
<path d="M3337 761 c-4 -17 -3 -21 5 -13 5 5 8 16 6 23 -3 8 -7 3 -11 -10z"/>
<path d="M3367 767 c-9 -23 5 -28 28 -10 15 12 16 14 3 10 -9 -3 -18 -1 -21 6
-2 6 -6 4 -10 -6z"/>
<path d="M3428 773 c7 -3 16 -2 19 1 4 3 -2 6 -13 5 -11 0 -14 -3 -6 -6z"/>
<path d="M491 731 c-8 -5 -9 -11 -3 -15 5 -3 12 1 16 9 6 17 6 18 -13 6z"/>
<path d="M479 698 c0 -2 -2 -11 -4 -21 -3 -15 -1 -16 11 -6 7 6 11 15 8 20 -5
9 -13 12 -15 7z"/>
<path d="M3505 601 c-3 -6 5 -15 17 -21 21 -10 21 -10 6 3 -10 8 -15 17 -11
20 3 4 4 7 0 7 -3 0 -8 -4 -12 -9z"/>
<path d="M3493 556 c0 -8 8 -11 20 -8 14 4 16 7 5 13 -19 12 -25 11 -25 -5z"/>
<path d="M3505 530 c-4 -6 -3 -16 3 -22 6 -6 12 -6 17 2 4 6 3 16 -3 22 -6 6
-12 6 -17 -2z"/>
<path d="M3500 440 c0 -6 7 -10 15 -10 8 0 15 2 15 4 0 2 -7 6 -15 10 -8 3
-15 1 -15 -4z"/>
<path d="M469 403 c-13 -17 -13 -17 5 -3 18 14 18 13 12 -10 -6 -22 -5 -23 5
-7 16 26 -3 44 -22 20z"/>
<path d="M3511 366 c-9 -11 -9 -16 1 -22 7 -4 10 -4 6 1 -4 4 -3 14 3 22 6 7
9 13 6 13 -2 0 -10 -6 -16 -14z"/>
<path d="M3497 316 c-4 -10 1 -12 14 -9 23 6 24 9 5 16 -8 3 -17 0 -19 -7z"/>
<path d="M486 251 c-17 -6 -17 -8 -4 -14 10 -3 19 0 22 9 3 8 4 14 3 13 -1 0
-11 -4 -21 -8z"/>
<path d="M479 212 c9 -7 10 -11 2 -15 -7 -4 -8 -5 0 -3 15 2 13 20 -3 24 -10
3 -10 2 1 -6z"/>
<path d="M3505 121 c-6 -11 13 -26 22 -17 4 3 0 6 -8 6 -11 0 -11 2 1 10 9 6
10 10 3 10 -6 0 -14 -4 -18 -9z"/>
<path d="M3497 76 c-4 -10 1 -12 14 -9 23 6 24 9 5 16 -8 3 -17 0 -19 -7z"/>
</g>
</svg>
